<mxfile host="65bd71144e">
    <diagram id="W0PnHYnVGUI30iWBZBz4" name="Page-1">
        <mxGraphModel dx="1931" dy="1493" grid="1" gridSize="10" guides="1" tooltips="1" connect="1" arrows="1" fold="1" page="1" pageScale="1" pageWidth="1100" pageHeight="850" math="0" shadow="0">
            <root>
                <mxCell id="0"/>
                <mxCell id="1" parent="0"/>
                <mxCell id="362" value="" style="rounded=1;whiteSpace=wrap;html=1;fillColor=#dae8fc;strokeColor=#6c8ebf;arcSize=9;" parent="1" vertex="1">
                    <mxGeometry x="385" y="-620" width="585" height="220" as="geometry"/>
                </mxCell>
                <mxCell id="73" value="" style="endArrow=classic;html=1;" parent="1" edge="1">
                    <mxGeometry width="50" height="50" relative="1" as="geometry">
                        <mxPoint x="-860" y="350.8" as="sourcePoint"/>
                        <mxPoint x="-800" y="350.8" as="targetPoint"/>
                    </mxGeometry>
                </mxCell>
                <mxCell id="2" value="" style="whiteSpace=wrap;html=1;" parent="1" vertex="1">
                    <mxGeometry x="280" y="120" width="120" height="170" as="geometry"/>
                </mxCell>
                <mxCell id="3" value="" style="rounded=0;whiteSpace=wrap;html=1;fillColor=#ffe6cc;strokeColor=#d79b00;" parent="1" vertex="1">
                    <mxGeometry x="380" y="434" width="80" height="100" as="geometry"/>
                </mxCell>
                <mxCell id="4" value="Regfile" style="text;html=1;align=center;verticalAlign=middle;resizable=0;points=[];autosize=1;strokeColor=none;" parent="1" vertex="1">
                    <mxGeometry x="395" y="414" width="50" height="20" as="geometry"/>
                </mxCell>
                <mxCell id="6" value="" style="endArrow=classic;html=1;" parent="1" edge="1">
                    <mxGeometry width="50" height="50" relative="1" as="geometry">
                        <mxPoint x="230" y="455" as="sourcePoint"/>
                        <mxPoint x="380" y="485" as="targetPoint"/>
                        <Array as="points">
                            <mxPoint x="230" y="485"/>
                        </Array>
                    </mxGeometry>
                </mxCell>
                <mxCell id="7" value="" style="endArrow=classic;html=1;" parent="1" edge="1">
                    <mxGeometry width="50" height="50" relative="1" as="geometry">
                        <mxPoint x="230" y="475" as="sourcePoint"/>
                        <mxPoint x="380" y="505" as="targetPoint"/>
                        <Array as="points">
                            <mxPoint x="230" y="505"/>
                        </Array>
                    </mxGeometry>
                </mxCell>
                <mxCell id="9" value="rs1" style="text;html=1;align=left;verticalAlign=middle;resizable=0;points=[];autosize=1;strokeColor=none;" parent="1" vertex="1">
                    <mxGeometry x="383" y="474" width="30" height="20" as="geometry"/>
                </mxCell>
                <mxCell id="12" value="rs2" style="text;html=1;align=left;verticalAlign=middle;resizable=0;points=[];autosize=1;strokeColor=none;" parent="1" vertex="1">
                    <mxGeometry x="383" y="494" width="30" height="20" as="geometry"/>
                </mxCell>
                <mxCell id="13" value="rd" style="text;html=1;align=left;verticalAlign=middle;resizable=0;points=[];autosize=1;strokeColor=none;" parent="1" vertex="1">
                    <mxGeometry x="383" y="454" width="30" height="20" as="geometry"/>
                </mxCell>
                <mxCell id="14" value="wr_dat" style="text;html=1;align=left;verticalAlign=middle;resizable=0;points=[];autosize=1;strokeColor=none;" parent="1" vertex="1">
                    <mxGeometry x="383" y="514" width="50" height="20" as="geometry"/>
                </mxCell>
                <mxCell id="15" value="reg_wr" style="text;html=1;align=left;verticalAlign=middle;resizable=0;points=[];autosize=1;strokeColor=none;" parent="1" vertex="1">
                    <mxGeometry x="383" y="434" width="50" height="20" as="geometry"/>
                </mxCell>
                <mxCell id="16" value="[rs1]" style="text;html=1;align=right;verticalAlign=middle;resizable=0;points=[];autosize=1;strokeColor=none;" parent="1" vertex="1">
                    <mxGeometry x="417" y="462" width="40" height="20" as="geometry"/>
                </mxCell>
                <mxCell id="17" value="[rs2]" style="text;html=1;align=right;verticalAlign=middle;resizable=0;points=[];autosize=1;strokeColor=none;" parent="1" vertex="1">
                    <mxGeometry x="417" y="482" width="40" height="20" as="geometry"/>
                </mxCell>
                <mxCell id="18" value="" style="endArrow=none;html=1;" parent="1" edge="1">
                    <mxGeometry width="50" height="50" relative="1" as="geometry">
                        <mxPoint x="252" y="490" as="sourcePoint"/>
                        <mxPoint x="262" y="480" as="targetPoint"/>
                    </mxGeometry>
                </mxCell>
                <mxCell id="19" value="19:15" style="text;html=1;align=center;verticalAlign=middle;resizable=0;points=[];autosize=1;strokeColor=none;" parent="1" vertex="1">
                    <mxGeometry x="231" y="483" width="50" height="20" as="geometry"/>
                </mxCell>
                <mxCell id="20" value="" style="endArrow=none;html=1;" parent="1" edge="1">
                    <mxGeometry width="50" height="50" relative="1" as="geometry">
                        <mxPoint x="252" y="510" as="sourcePoint"/>
                        <mxPoint x="262" y="500" as="targetPoint"/>
                    </mxGeometry>
                </mxCell>
                <mxCell id="21" value="24:20" style="text;html=1;align=center;verticalAlign=middle;resizable=0;points=[];autosize=1;strokeColor=none;" parent="1" vertex="1">
                    <mxGeometry x="231" y="503" width="50" height="20" as="geometry"/>
                </mxCell>
                <mxCell id="22" value="Control" style="text;html=1;align=center;verticalAlign=middle;resizable=0;points=[];autosize=1;strokeColor=none;" parent="1" vertex="1">
                    <mxGeometry x="313" y="100" width="50" height="20" as="geometry"/>
                </mxCell>
                <mxCell id="23" value="" style="endArrow=classic;html=1;" parent="1" edge="1">
                    <mxGeometry width="50" height="50" relative="1" as="geometry">
                        <mxPoint x="230" y="220" as="sourcePoint"/>
                        <mxPoint x="280" y="240" as="targetPoint"/>
                        <Array as="points">
                            <mxPoint x="230" y="240"/>
                        </Array>
                    </mxGeometry>
                </mxCell>
                <mxCell id="24" value="reg_wr&lt;br&gt;mem_wr&lt;br&gt;mem2reg&lt;br&gt;mem_rd&lt;br&gt;alu_ctrl[1:0]&lt;br&gt;alusrca&lt;br&gt;alusrcb&lt;br&gt;jalr&lt;br&gt;branch&lt;br&gt;pcsrc&lt;br&gt;imm_type" style="text;html=1;align=right;verticalAlign=middle;resizable=0;points=[];autosize=1;strokeColor=none;" parent="1" vertex="1">
                    <mxGeometry x="315" y="120" width="80" height="160" as="geometry"/>
                </mxCell>
                <mxCell id="26" value="" style="endArrow=none;html=1;" parent="1" edge="1">
                    <mxGeometry width="50" height="50" relative="1" as="geometry">
                        <mxPoint x="250" y="245" as="sourcePoint"/>
                        <mxPoint x="260" y="235" as="targetPoint"/>
                    </mxGeometry>
                </mxCell>
                <mxCell id="27" value="6:0" style="text;html=1;align=center;verticalAlign=middle;resizable=0;points=[];autosize=1;strokeColor=none;" parent="1" vertex="1">
                    <mxGeometry x="240" y="239" width="30" height="20" as="geometry"/>
                </mxCell>
                <mxCell id="28" value="" style="rounded=0;whiteSpace=wrap;html=1;" parent="1" vertex="1">
                    <mxGeometry x="480" y="359" width="80" height="50" as="geometry"/>
                </mxCell>
                <mxCell id="29" value="Imm Gen" style="text;html=1;align=center;verticalAlign=middle;resizable=0;points=[];autosize=1;strokeColor=none;" parent="1" vertex="1">
                    <mxGeometry x="490" y="339" width="60" height="20" as="geometry"/>
                </mxCell>
                <mxCell id="30" value="" style="endArrow=classic;html=1;" parent="1" edge="1">
                    <mxGeometry width="50" height="50" relative="1" as="geometry">
                        <mxPoint x="140" y="160" as="sourcePoint"/>
                        <mxPoint x="480" y="390" as="targetPoint"/>
                        <Array as="points">
                            <mxPoint x="230" y="160"/>
                            <mxPoint x="230" y="390"/>
                        </Array>
                    </mxGeometry>
                </mxCell>
                <mxCell id="31" value="" style="endArrow=none;html=1;" parent="1" edge="1">
                    <mxGeometry width="50" height="50" relative="1" as="geometry">
                        <mxPoint x="250" y="395" as="sourcePoint"/>
                        <mxPoint x="260" y="385" as="targetPoint"/>
                    </mxGeometry>
                </mxCell>
                <mxCell id="32" value="31:7" style="text;html=1;align=center;verticalAlign=middle;resizable=0;points=[];autosize=1;strokeColor=none;" parent="1" vertex="1">
                    <mxGeometry x="235" y="389" width="40" height="20" as="geometry"/>
                </mxCell>
                <mxCell id="33" value="" style="endArrow=classic;html=1;" parent="1" edge="1">
                    <mxGeometry width="50" height="50" relative="1" as="geometry">
                        <mxPoint x="560" y="382.71000000000004" as="sourcePoint"/>
                        <mxPoint x="630" y="383" as="targetPoint"/>
                    </mxGeometry>
                </mxCell>
                <mxCell id="34" value="imm32" style="text;html=1;align=center;verticalAlign=middle;resizable=0;points=[];autosize=1;strokeColor=none;" parent="1" vertex="1">
                    <mxGeometry x="513" y="373" width="50" height="20" as="geometry"/>
                </mxCell>
                <mxCell id="35" value="" style="endArrow=none;html=1;" parent="1" edge="1">
                    <mxGeometry width="50" height="50" relative="1" as="geometry">
                        <mxPoint x="585" y="388" as="sourcePoint"/>
                        <mxPoint x="595" y="378" as="targetPoint"/>
                    </mxGeometry>
                </mxCell>
                <mxCell id="36" value="32" style="text;html=1;align=center;verticalAlign=middle;resizable=0;points=[];autosize=1;strokeColor=none;" parent="1" vertex="1">
                    <mxGeometry x="581" y="380" width="30" height="20" as="geometry"/>
                </mxCell>
                <mxCell id="38" value="" style="endArrow=classic;html=1;" parent="1" edge="1">
                    <mxGeometry width="50" height="50" relative="1" as="geometry">
                        <mxPoint x="230" y="380" as="sourcePoint"/>
                        <mxPoint x="630" y="630" as="targetPoint"/>
                        <Array as="points">
                            <mxPoint x="230" y="630"/>
                        </Array>
                    </mxGeometry>
                </mxCell>
                <mxCell id="41" value="" style="endArrow=classic;html=1;" parent="1" edge="1">
                    <mxGeometry width="50" height="50" relative="1" as="geometry">
                        <mxPoint x="460" y="474" as="sourcePoint"/>
                        <mxPoint x="630" y="474" as="targetPoint"/>
                    </mxGeometry>
                </mxCell>
                <mxCell id="42" value="" style="endArrow=classic;html=1;" parent="1" edge="1">
                    <mxGeometry width="50" height="50" relative="1" as="geometry">
                        <mxPoint x="460" y="494" as="sourcePoint"/>
                        <mxPoint x="630" y="494" as="targetPoint"/>
                    </mxGeometry>
                </mxCell>
                <mxCell id="43" value="id.instr" style="text;html=1;align=center;verticalAlign=middle;resizable=0;points=[];autosize=1;strokeColor=none;" parent="1" vertex="1">
                    <mxGeometry x="80" y="150" width="50" height="20" as="geometry"/>
                </mxCell>
                <mxCell id="44" value="exe.instr[30,14:12]" style="text;html=1;align=center;verticalAlign=middle;resizable=0;points=[];autosize=1;strokeColor=none;" parent="1" vertex="1">
                    <mxGeometry x="1331" y="190" width="110" height="20" as="geometry"/>
                </mxCell>
                <mxCell id="45" value="" style="endArrow=classic;html=1;" parent="1" edge="1">
                    <mxGeometry width="50" height="50" relative="1" as="geometry">
                        <mxPoint x="1439" y="199.57999999999993" as="sourcePoint"/>
                        <mxPoint x="1499" y="199.57999999999993" as="targetPoint"/>
                    </mxGeometry>
                </mxCell>
                <mxCell id="46" value="" style="rounded=0;whiteSpace=wrap;html=1;" parent="1" vertex="1">
                    <mxGeometry x="1499" y="140" width="80" height="90" as="geometry"/>
                </mxCell>
                <mxCell id="47" value="ALU op Gen" style="text;html=1;align=center;verticalAlign=middle;resizable=0;points=[];autosize=1;strokeColor=none;" parent="1" vertex="1">
                    <mxGeometry x="1499" y="120" width="80" height="20" as="geometry"/>
                </mxCell>
                <mxCell id="48" value="exe.alu_ctrl" style="text;html=1;align=center;verticalAlign=middle;resizable=0;points=[];autosize=1;strokeColor=none;" parent="1" vertex="1">
                    <mxGeometry x="1361" y="154" width="80" height="20" as="geometry"/>
                </mxCell>
                <mxCell id="49" value="" style="endArrow=classic;html=1;fillColor=#dae8fc;strokeColor=#6c8ebf;" parent="1" edge="1">
                    <mxGeometry width="50" height="50" relative="1" as="geometry">
                        <mxPoint x="1439" y="168.57999999999993" as="sourcePoint"/>
                        <mxPoint x="1499" y="168.57999999999993" as="targetPoint"/>
                    </mxGeometry>
                </mxCell>
                <mxCell id="50" value="" style="endArrow=none;html=1;fillColor=#dae8fc;strokeColor=#6c8ebf;" parent="1" edge="1">
                    <mxGeometry width="50" height="50" relative="1" as="geometry">
                        <mxPoint x="1464" y="174" as="sourcePoint"/>
                        <mxPoint x="1474" y="164" as="targetPoint"/>
                    </mxGeometry>
                </mxCell>
                <mxCell id="51" value="2" style="text;html=1;align=center;verticalAlign=middle;resizable=0;points=[];autosize=1;strokeColor=none;" parent="1" vertex="1">
                    <mxGeometry x="1463" y="165" width="20" height="20" as="geometry"/>
                </mxCell>
                <mxCell id="53" value="" style="endArrow=classic;html=1;exitX=0;exitY=-0.039;exitDx=0;exitDy=0;exitPerimeter=0;" parent="1" source="58" edge="1">
                    <mxGeometry width="50" height="50" relative="1" as="geometry">
                        <mxPoint x="1576" y="245" as="sourcePoint"/>
                        <mxPoint x="1636" y="346" as="targetPoint"/>
                        <Array as="points">
                            <mxPoint x="1605" y="178"/>
                            <mxPoint x="1605" y="346"/>
                        </Array>
                    </mxGeometry>
                </mxCell>
                <mxCell id="54" value="aluop" style="text;html=1;align=center;verticalAlign=middle;resizable=0;points=[];autosize=1;strokeColor=none;" parent="1" vertex="1">
                    <mxGeometry x="1539" y="168" width="40" height="20" as="geometry"/>
                </mxCell>
                <mxCell id="55" value="" style="endArrow=none;html=1;" parent="1" edge="1">
                    <mxGeometry width="50" height="50" relative="1" as="geometry">
                        <mxPoint x="1464.0000000000002" y="205" as="sourcePoint"/>
                        <mxPoint x="1474.0000000000002" y="195" as="targetPoint"/>
                    </mxGeometry>
                </mxCell>
                <mxCell id="56" value="30,14:12" style="text;html=1;align=center;verticalAlign=middle;resizable=0;points=[];autosize=1;strokeColor=none;" parent="1" vertex="1">
                    <mxGeometry x="1436" y="200" width="60" height="20" as="geometry"/>
                </mxCell>
                <mxCell id="57" value="" style="endArrow=none;html=1;" parent="1" edge="1">
                    <mxGeometry width="50" height="50" relative="1" as="geometry">
                        <mxPoint x="1587.0000000000002" y="182.5" as="sourcePoint"/>
                        <mxPoint x="1597.0000000000002" y="172.5" as="targetPoint"/>
                    </mxGeometry>
                </mxCell>
                <mxCell id="58" value="3:0" style="text;html=1;align=center;verticalAlign=middle;resizable=0;points=[];autosize=1;strokeColor=none;" parent="1" vertex="1">
                    <mxGeometry x="1576" y="177.5" width="30" height="20" as="geometry"/>
                </mxCell>
                <mxCell id="61" value="" style="endArrow=classic;html=1;exitX=0.999;exitY=0.899;exitDx=0;exitDy=0;exitPerimeter=0;fillColor=#dae8fc;strokeColor=#6c8ebf;" parent="1" source="2" edge="1">
                    <mxGeometry width="50" height="50" relative="1" as="geometry">
                        <mxPoint x="400" y="295" as="sourcePoint"/>
                        <mxPoint x="480" y="375" as="targetPoint"/>
                        <Array as="points">
                            <mxPoint x="430" y="273"/>
                            <mxPoint x="430" y="375"/>
                        </Array>
                    </mxGeometry>
                </mxCell>
                <mxCell id="64" value="&lt;b&gt;Decode&lt;/b&gt;" style="text;html=1;align=center;verticalAlign=middle;resizable=0;points=[];autosize=1;strokeColor=none;" parent="1" vertex="1">
                    <mxGeometry x="494" y="2" width="60" height="20" as="geometry"/>
                </mxCell>
                <mxCell id="65" value="&lt;b&gt;Execute&lt;/b&gt;" style="text;html=1;align=center;verticalAlign=middle;resizable=0;points=[];autosize=1;strokeColor=none;" parent="1" vertex="1">
                    <mxGeometry x="1595" y="66" width="60" height="20" as="geometry"/>
                </mxCell>
                <mxCell id="66" value="&lt;b&gt;Fetch&lt;/b&gt;" style="text;html=1;align=center;verticalAlign=middle;resizable=0;points=[];autosize=1;strokeColor=none;" parent="1" vertex="1">
                    <mxGeometry x="-692" y="100" width="50" height="20" as="geometry"/>
                </mxCell>
                <mxCell id="67" value="br_result" style="text;html=1;align=right;verticalAlign=middle;resizable=0;points=[];autosize=1;strokeColor=none;" parent="1" vertex="1">
                    <mxGeometry x="-1022" y="258" width="60" height="20" as="geometry"/>
                </mxCell>
                <mxCell id="68" value="" style="shape=trapezoid;perimeter=trapezoidPerimeter;whiteSpace=wrap;html=1;fixedSize=1;rotation=90;size=10.5;" parent="1" vertex="1">
                    <mxGeometry x="-914.75" y="353.75" width="90" height="24" as="geometry"/>
                </mxCell>
                <mxCell id="69" value="0&lt;br&gt;&lt;br&gt;1&lt;br&gt;&lt;br&gt;2" style="text;html=1;align=center;verticalAlign=middle;resizable=0;points=[];autosize=1;strokeColor=none;" parent="1" vertex="1">
                    <mxGeometry x="-883" y="325.75" width="20" height="80" as="geometry"/>
                </mxCell>
                <mxCell id="70" value="" style="endArrow=none;html=1;startArrow=classic;startFill=1;" parent="1" edge="1">
                    <mxGeometry width="50" height="50" relative="1" as="geometry">
                        <mxPoint x="-869.99" y="325" as="sourcePoint"/>
                        <mxPoint x="-960" y="270" as="targetPoint"/>
                        <Array as="points">
                            <mxPoint x="-870" y="270"/>
                        </Array>
                    </mxGeometry>
                </mxCell>
                <mxCell id="71" value="mem.br_adr" style="text;html=1;align=right;verticalAlign=middle;resizable=0;points=[];autosize=1;strokeColor=none;" parent="1" vertex="1">
                    <mxGeometry x="-1042" y="355" width="80" height="20" as="geometry"/>
                </mxCell>
                <mxCell id="72" value="" style="rounded=0;whiteSpace=wrap;html=1;fillColor=#ffe6cc;strokeColor=#d79b00;" parent="1" vertex="1">
                    <mxGeometry x="-800" y="326" width="40" height="80" as="geometry"/>
                </mxCell>
                <mxCell id="74" value="PC" style="text;html=1;align=center;verticalAlign=middle;resizable=0;points=[];autosize=1;strokeColor=none;" parent="1" vertex="1">
                    <mxGeometry x="-795" y="338" width="30" height="20" as="geometry"/>
                </mxCell>
                <mxCell id="75" value="" style="endArrow=classic;html=1;entryX=0.033;entryY=0.15;entryDx=0;entryDy=0;entryPerimeter=0;jumpStyle=arc;" parent="1" target="69" edge="1">
                    <mxGeometry width="50" height="50" relative="1" as="geometry">
                        <mxPoint x="-760" y="350" as="sourcePoint"/>
                        <mxPoint x="-880" y="340" as="targetPoint"/>
                        <Array as="points">
                            <mxPoint x="-700" y="350"/>
                            <mxPoint x="-700" y="290"/>
                            <mxPoint x="-920" y="290"/>
                            <mxPoint x="-920" y="337"/>
                        </Array>
                    </mxGeometry>
                </mxCell>
                <mxCell id="76" value="+ 4" style="ellipse;whiteSpace=wrap;html=1;aspect=fixed;" parent="1" vertex="1">
                    <mxGeometry x="-713" y="306" width="26" height="26" as="geometry"/>
                </mxCell>
                <mxCell id="77" value="" style="endArrow=classic;html=1;" parent="1" edge="1">
                    <mxGeometry width="50" height="50" relative="1" as="geometry">
                        <mxPoint x="-961" y="366" as="sourcePoint"/>
                        <mxPoint x="-882" y="365.8" as="targetPoint"/>
                    </mxGeometry>
                </mxCell>
                <mxCell id="78" value="" style="endArrow=classic;html=1;" parent="1" edge="1">
                    <mxGeometry width="50" height="50" relative="1" as="geometry">
                        <mxPoint x="-730" y="349.8" as="sourcePoint"/>
                        <mxPoint x="-640" y="350" as="targetPoint"/>
                    </mxGeometry>
                </mxCell>
                <mxCell id="79" value="" style="endArrow=classic;html=1;" parent="1" edge="1">
                    <mxGeometry width="50" height="50" relative="1" as="geometry">
                        <mxPoint x="-700" y="306" as="sourcePoint"/>
                        <mxPoint x="-450" y="200" as="targetPoint"/>
                        <Array as="points">
                            <mxPoint x="-700" y="290"/>
                            <mxPoint x="-700" y="200"/>
                        </Array>
                    </mxGeometry>
                </mxCell>
                <mxCell id="81" value="" style="rounded=0;whiteSpace=wrap;html=1;fillColor=#ffe6cc;strokeColor=#d79b00;" parent="1" vertex="1">
                    <mxGeometry x="-640" y="330" width="120" height="80" as="geometry"/>
                </mxCell>
                <mxCell id="82" value="i-memory" style="text;html=1;align=center;verticalAlign=middle;resizable=0;points=[];autosize=1;strokeColor=none;" parent="1" vertex="1">
                    <mxGeometry x="-615" y="310" width="70" height="20" as="geometry"/>
                </mxCell>
                <mxCell id="83" value="nxt_pc" style="text;html=1;align=center;verticalAlign=middle;resizable=0;points=[];autosize=1;strokeColor=none;" parent="1" vertex="1">
                    <mxGeometry x="-855" y="326" width="50" height="20" as="geometry"/>
                </mxCell>
                <mxCell id="84" value="" style="endArrow=none;html=1;" parent="1" edge="1">
                    <mxGeometry width="50" height="50" relative="1" as="geometry">
                        <mxPoint x="-835" y="356" as="sourcePoint"/>
                        <mxPoint x="-825" y="346" as="targetPoint"/>
                    </mxGeometry>
                </mxCell>
                <mxCell id="85" value="32" style="text;html=1;align=center;verticalAlign=middle;resizable=0;points=[];autosize=1;strokeColor=none;" parent="1" vertex="1">
                    <mxGeometry x="-845" y="350" width="30" height="20" as="geometry"/>
                </mxCell>
                <mxCell id="86" value="pc" style="text;html=1;align=center;verticalAlign=middle;resizable=0;points=[];autosize=1;strokeColor=none;" parent="1" vertex="1">
                    <mxGeometry x="-760" y="330" width="30" height="20" as="geometry"/>
                </mxCell>
                <mxCell id="87" value="" style="endArrow=none;html=1;" parent="1" edge="1">
                    <mxGeometry width="50" height="50" relative="1" as="geometry">
                        <mxPoint x="-733" y="355" as="sourcePoint"/>
                        <mxPoint x="-723" y="345" as="targetPoint"/>
                    </mxGeometry>
                </mxCell>
                <mxCell id="88" value="32" style="text;html=1;align=center;verticalAlign=middle;resizable=0;points=[];autosize=1;strokeColor=none;" parent="1" vertex="1">
                    <mxGeometry x="-743" y="349" width="30" height="20" as="geometry"/>
                </mxCell>
                <mxCell id="89" value="pc4" style="text;html=1;align=center;verticalAlign=middle;resizable=0;points=[];autosize=1;strokeColor=none;" parent="1" vertex="1">
                    <mxGeometry x="-805" y="268" width="30" height="20" as="geometry"/>
                </mxCell>
                <mxCell id="90" value="" style="endArrow=none;html=1;" parent="1" edge="1">
                    <mxGeometry width="50" height="50" relative="1" as="geometry">
                        <mxPoint x="-795" y="295" as="sourcePoint"/>
                        <mxPoint x="-785" y="285" as="targetPoint"/>
                    </mxGeometry>
                </mxCell>
                <mxCell id="91" value="32" style="text;html=1;align=center;verticalAlign=middle;resizable=0;points=[];autosize=1;strokeColor=none;" parent="1" vertex="1">
                    <mxGeometry x="-805" y="289" width="30" height="20" as="geometry"/>
                </mxCell>
                <mxCell id="92" value="i_iadr" style="text;html=1;align=left;verticalAlign=middle;resizable=0;points=[];autosize=1;strokeColor=none;" parent="1" vertex="1">
                    <mxGeometry x="-632" y="339" width="40" height="20" as="geometry"/>
                </mxCell>
                <mxCell id="93" value="o_idat" style="text;html=1;align=right;verticalAlign=middle;resizable=0;points=[];autosize=1;strokeColor=none;" parent="1" vertex="1">
                    <mxGeometry x="-580" y="338" width="50" height="20" as="geometry"/>
                </mxCell>
                <mxCell id="94" value="" style="endArrow=classic;html=1;" parent="1" edge="1">
                    <mxGeometry width="50" height="50" relative="1" as="geometry">
                        <mxPoint x="-520" y="349.71" as="sourcePoint"/>
                        <mxPoint x="-450" y="349.71" as="targetPoint"/>
                    </mxGeometry>
                </mxCell>
                <mxCell id="95" value="" style="endArrow=none;html=1;" parent="1" edge="1">
                    <mxGeometry width="50" height="50" relative="1" as="geometry">
                        <mxPoint x="-490" y="355" as="sourcePoint"/>
                        <mxPoint x="-480" y="345" as="targetPoint"/>
                    </mxGeometry>
                </mxCell>
                <mxCell id="96" value="32" style="text;html=1;align=center;verticalAlign=middle;resizable=0;points=[];autosize=1;strokeColor=none;" parent="1" vertex="1">
                    <mxGeometry x="-500" y="349" width="30" height="20" as="geometry"/>
                </mxCell>
                <mxCell id="97" value="id.instr" style="text;html=1;align=center;verticalAlign=middle;resizable=0;points=[];autosize=1;strokeColor=none;" parent="1" vertex="1">
                    <mxGeometry x="-337" y="338" width="50" height="20" as="geometry"/>
                </mxCell>
                <mxCell id="100" value="" style="endArrow=classic;html=1;" parent="1" edge="1">
                    <mxGeometry width="50" height="50" relative="1" as="geometry">
                        <mxPoint x="-710" y="350" as="sourcePoint"/>
                        <mxPoint x="-450" y="210" as="targetPoint"/>
                        <Array as="points">
                            <mxPoint x="-670" y="350"/>
                            <mxPoint x="-670" y="210"/>
                        </Array>
                    </mxGeometry>
                </mxCell>
                <mxCell id="101" value="" style="rounded=0;whiteSpace=wrap;html=1;fillColor=#ffe6cc;strokeColor=#d79b00;" parent="1" vertex="1">
                    <mxGeometry x="-450" y="178" width="40" height="232" as="geometry"/>
                </mxCell>
                <mxCell id="102" value="IF/ID&lt;br&gt;regs" style="text;html=1;align=center;verticalAlign=middle;resizable=0;points=[];autosize=1;strokeColor=none;" parent="1" vertex="1">
                    <mxGeometry x="-450" y="188" width="40" height="30" as="geometry"/>
                </mxCell>
                <mxCell id="103" value="" style="endArrow=classic;html=1;" parent="1" edge="1">
                    <mxGeometry width="50" height="50" relative="1" as="geometry">
                        <mxPoint x="-410" y="198.71000000000004" as="sourcePoint"/>
                        <mxPoint x="-340" y="198.71000000000004" as="targetPoint"/>
                    </mxGeometry>
                </mxCell>
                <mxCell id="104" value="" style="endArrow=none;html=1;" parent="1" edge="1">
                    <mxGeometry width="50" height="50" relative="1" as="geometry">
                        <mxPoint x="-380" y="204" as="sourcePoint"/>
                        <mxPoint x="-370" y="194" as="targetPoint"/>
                    </mxGeometry>
                </mxCell>
                <mxCell id="105" value="32" style="text;html=1;align=center;verticalAlign=middle;resizable=0;points=[];autosize=1;strokeColor=none;" parent="1" vertex="1">
                    <mxGeometry x="-379" y="194" width="30" height="20" as="geometry"/>
                </mxCell>
                <mxCell id="106" value="id.pc4" style="text;html=1;align=center;verticalAlign=middle;resizable=0;points=[];autosize=1;strokeColor=none;" parent="1" vertex="1">
                    <mxGeometry x="-339" y="187" width="50" height="20" as="geometry"/>
                </mxCell>
                <mxCell id="107" value="" style="endArrow=classic;html=1;" parent="1" edge="1">
                    <mxGeometry width="50" height="50" relative="1" as="geometry">
                        <mxPoint x="-410" y="210.71000000000004" as="sourcePoint"/>
                        <mxPoint x="-340" y="210.71000000000004" as="targetPoint"/>
                    </mxGeometry>
                </mxCell>
                <mxCell id="108" value="" style="endArrow=none;html=1;" parent="1" edge="1">
                    <mxGeometry width="50" height="50" relative="1" as="geometry">
                        <mxPoint x="-380" y="216" as="sourcePoint"/>
                        <mxPoint x="-370" y="206" as="targetPoint"/>
                    </mxGeometry>
                </mxCell>
                <mxCell id="109" value="32" style="text;html=1;align=center;verticalAlign=middle;resizable=0;points=[];autosize=1;strokeColor=none;" parent="1" vertex="1">
                    <mxGeometry x="-379" y="206" width="30" height="20" as="geometry"/>
                </mxCell>
                <mxCell id="110" value="id.pc" style="text;html=1;align=center;verticalAlign=middle;resizable=0;points=[];autosize=1;strokeColor=none;" parent="1" vertex="1">
                    <mxGeometry x="-337" y="200" width="40" height="20" as="geometry"/>
                </mxCell>
                <mxCell id="111" value="BTB" style="text;html=1;align=center;verticalAlign=middle;resizable=0;points=[];autosize=1;strokeColor=none;dashed=1;" parent="1" vertex="1">
                    <mxGeometry x="-923" y="494" width="40" height="20" as="geometry"/>
                </mxCell>
                <mxCell id="112" value="" style="rounded=0;whiteSpace=wrap;html=1;fillColor=#ffe6cc;strokeColor=#d79b00;dashed=1;" parent="1" vertex="1">
                    <mxGeometry x="-943" y="514" width="80" height="80" as="geometry"/>
                </mxCell>
                <mxCell id="113" value="Branch Predictor" style="text;html=1;align=center;verticalAlign=middle;resizable=0;points=[];autosize=1;strokeColor=none;dashed=1;" parent="1" vertex="1">
                    <mxGeometry x="-840" y="494" width="100" height="20" as="geometry"/>
                </mxCell>
                <mxCell id="114" value="" style="rounded=0;whiteSpace=wrap;html=1;fillColor=#ffe6cc;strokeColor=#d79b00;dashed=1;" parent="1" vertex="1">
                    <mxGeometry x="-830" y="514" width="80" height="80" as="geometry"/>
                </mxCell>
                <mxCell id="116" value="" style="endArrow=none;html=1;" parent="1" edge="1">
                    <mxGeometry width="50" height="50" relative="1" as="geometry">
                        <mxPoint x="170" y="166" as="sourcePoint"/>
                        <mxPoint x="180" y="156" as="targetPoint"/>
                    </mxGeometry>
                </mxCell>
                <mxCell id="117" value="32" style="text;html=1;align=center;verticalAlign=middle;resizable=0;points=[];autosize=1;strokeColor=none;" parent="1" vertex="1">
                    <mxGeometry x="160" y="160" width="30" height="20" as="geometry"/>
                </mxCell>
                <mxCell id="118" value="ex.imm32" style="text;html=1;align=center;verticalAlign=middle;resizable=0;points=[];autosize=1;strokeColor=none;" parent="1" vertex="1">
                    <mxGeometry x="740" y="373" width="70" height="20" as="geometry"/>
                </mxCell>
                <mxCell id="120" value="" style="rounded=0;whiteSpace=wrap;html=1;fillColor=#ffe6cc;strokeColor=#d79b00;" parent="1" vertex="1">
                    <mxGeometry x="630" y="80" width="40" height="670" as="geometry"/>
                </mxCell>
                <mxCell id="119" value="ID/EX&lt;br&gt;regs" style="text;html=1;align=center;verticalAlign=middle;resizable=0;points=[];autosize=1;strokeColor=none;" parent="1" vertex="1">
                    <mxGeometry x="625" y="90" width="50" height="30" as="geometry"/>
                </mxCell>
                <mxCell id="121" value="" style="endArrow=none;html=1;" parent="1" edge="1">
                    <mxGeometry width="50" height="50" relative="1" as="geometry">
                        <mxPoint x="585" y="479" as="sourcePoint"/>
                        <mxPoint x="595" y="469" as="targetPoint"/>
                    </mxGeometry>
                </mxCell>
                <mxCell id="122" value="32" style="text;html=1;align=center;verticalAlign=middle;resizable=0;points=[];autosize=1;strokeColor=none;" parent="1" vertex="1">
                    <mxGeometry x="582" y="469" width="30" height="20" as="geometry"/>
                </mxCell>
                <mxCell id="123" value="" style="endArrow=none;html=1;" parent="1" edge="1">
                    <mxGeometry width="50" height="50" relative="1" as="geometry">
                        <mxPoint x="585" y="499" as="sourcePoint"/>
                        <mxPoint x="595" y="489" as="targetPoint"/>
                    </mxGeometry>
                </mxCell>
                <mxCell id="124" value="32" style="text;html=1;align=center;verticalAlign=middle;resizable=0;points=[];autosize=1;strokeColor=none;" parent="1" vertex="1">
                    <mxGeometry x="582" y="489" width="30" height="20" as="geometry"/>
                </mxCell>
                <mxCell id="125" value="instr(CONTROL)" style="text;html=1;align=center;verticalAlign=middle;resizable=0;points=[];autosize=1;strokeColor=none;" parent="1" vertex="1">
                    <mxGeometry x="125" y="222" width="100" height="20" as="geometry"/>
                </mxCell>
                <mxCell id="127" value="instr(RS1)" style="text;html=1;align=center;verticalAlign=middle;resizable=0;points=[];autosize=1;strokeColor=none;" parent="1" vertex="1">
                    <mxGeometry x="155" y="469" width="70" height="20" as="geometry"/>
                </mxCell>
                <mxCell id="128" value="instr(RS2)" style="text;html=1;align=center;verticalAlign=middle;resizable=0;points=[];autosize=1;strokeColor=none;" parent="1" vertex="1">
                    <mxGeometry x="155" y="489" width="70" height="20" as="geometry"/>
                </mxCell>
                <mxCell id="129" value="" style="endArrow=none;html=1;" parent="1" edge="1">
                    <mxGeometry width="50" height="50" relative="1" as="geometry">
                        <mxPoint x="585" y="635" as="sourcePoint"/>
                        <mxPoint x="595" y="625" as="targetPoint"/>
                    </mxGeometry>
                </mxCell>
                <mxCell id="130" value="32" style="text;html=1;align=center;verticalAlign=middle;resizable=0;points=[];autosize=1;strokeColor=none;" parent="1" vertex="1">
                    <mxGeometry x="582" y="625" width="30" height="20" as="geometry"/>
                </mxCell>
                <mxCell id="131" value="ex.rs1_dat" style="text;html=1;align=center;verticalAlign=middle;resizable=0;points=[];autosize=1;strokeColor=none;" parent="1" vertex="1">
                    <mxGeometry x="746" y="463" width="70" height="20" as="geometry"/>
                </mxCell>
                <mxCell id="132" value="ex.rs2_dat" style="text;html=1;align=center;verticalAlign=middle;resizable=0;points=[];autosize=1;strokeColor=none;" parent="1" vertex="1">
                    <mxGeometry x="746" y="483" width="70" height="20" as="geometry"/>
                </mxCell>
                <mxCell id="133" value="ex.instr" style="text;html=1;align=center;verticalAlign=middle;resizable=0;points=[];autosize=1;strokeColor=none;" parent="1" vertex="1">
                    <mxGeometry x="745" y="618" width="50" height="20" as="geometry"/>
                </mxCell>
                <mxCell id="134" value="" style="endArrow=classic;html=1;" parent="1" edge="1">
                    <mxGeometry width="50" height="50" relative="1" as="geometry">
                        <mxPoint x="670" y="383.71000000000004" as="sourcePoint"/>
                        <mxPoint x="740" y="384" as="targetPoint"/>
                    </mxGeometry>
                </mxCell>
                <mxCell id="135" value="" style="endArrow=none;html=1;" parent="1" edge="1">
                    <mxGeometry width="50" height="50" relative="1" as="geometry">
                        <mxPoint x="695" y="389" as="sourcePoint"/>
                        <mxPoint x="705" y="379" as="targetPoint"/>
                    </mxGeometry>
                </mxCell>
                <mxCell id="136" value="32" style="text;html=1;align=center;verticalAlign=middle;resizable=0;points=[];autosize=1;strokeColor=none;" parent="1" vertex="1">
                    <mxGeometry x="691" y="381" width="30" height="20" as="geometry"/>
                </mxCell>
                <mxCell id="137" value="" style="endArrow=classic;html=1;" parent="1" edge="1">
                    <mxGeometry width="50" height="50" relative="1" as="geometry">
                        <mxPoint x="670" y="473.71000000000004" as="sourcePoint"/>
                        <mxPoint x="740" y="474" as="targetPoint"/>
                    </mxGeometry>
                </mxCell>
                <mxCell id="138" value="" style="endArrow=none;html=1;" parent="1" edge="1">
                    <mxGeometry width="50" height="50" relative="1" as="geometry">
                        <mxPoint x="695" y="479" as="sourcePoint"/>
                        <mxPoint x="705" y="469" as="targetPoint"/>
                    </mxGeometry>
                </mxCell>
                <mxCell id="139" value="32" style="text;html=1;align=center;verticalAlign=middle;resizable=0;points=[];autosize=1;strokeColor=none;" parent="1" vertex="1">
                    <mxGeometry x="691" y="471" width="30" height="20" as="geometry"/>
                </mxCell>
                <mxCell id="141" value="" style="endArrow=classic;html=1;" parent="1" edge="1">
                    <mxGeometry width="50" height="50" relative="1" as="geometry">
                        <mxPoint x="670" y="493.71000000000004" as="sourcePoint"/>
                        <mxPoint x="740" y="494" as="targetPoint"/>
                    </mxGeometry>
                </mxCell>
                <mxCell id="142" value="" style="endArrow=none;html=1;" parent="1" edge="1">
                    <mxGeometry width="50" height="50" relative="1" as="geometry">
                        <mxPoint x="695" y="499" as="sourcePoint"/>
                        <mxPoint x="705" y="489" as="targetPoint"/>
                    </mxGeometry>
                </mxCell>
                <mxCell id="143" value="32" style="text;html=1;align=center;verticalAlign=middle;resizable=0;points=[];autosize=1;strokeColor=none;" parent="1" vertex="1">
                    <mxGeometry x="691" y="491" width="30" height="20" as="geometry"/>
                </mxCell>
                <mxCell id="144" value="" style="endArrow=classic;html=1;" parent="1" edge="1">
                    <mxGeometry width="50" height="50" relative="1" as="geometry">
                        <mxPoint x="670" y="629.71" as="sourcePoint"/>
                        <mxPoint x="740" y="630" as="targetPoint"/>
                    </mxGeometry>
                </mxCell>
                <mxCell id="145" value="" style="endArrow=none;html=1;" parent="1" edge="1">
                    <mxGeometry width="50" height="50" relative="1" as="geometry">
                        <mxPoint x="695" y="635" as="sourcePoint"/>
                        <mxPoint x="705" y="625" as="targetPoint"/>
                    </mxGeometry>
                </mxCell>
                <mxCell id="146" value="32" style="text;html=1;align=center;verticalAlign=middle;resizable=0;points=[];autosize=1;strokeColor=none;" parent="1" vertex="1">
                    <mxGeometry x="691" y="627" width="30" height="20" as="geometry"/>
                </mxCell>
                <mxCell id="147" value="id.pc4" style="text;html=1;align=center;verticalAlign=middle;resizable=0;points=[];autosize=1;strokeColor=none;" parent="1" vertex="1">
                    <mxGeometry x="80" y="700" width="50" height="20" as="geometry"/>
                </mxCell>
                <mxCell id="148" value="id.pc" style="text;html=1;align=center;verticalAlign=middle;resizable=0;points=[];autosize=1;strokeColor=none;" parent="1" vertex="1">
                    <mxGeometry x="88" y="713" width="40" height="20" as="geometry"/>
                </mxCell>
                <mxCell id="149" value="" style="endArrow=classic;html=1;" parent="1" edge="1">
                    <mxGeometry width="50" height="50" relative="1" as="geometry">
                        <mxPoint x="140" y="710" as="sourcePoint"/>
                        <mxPoint x="630" y="710" as="targetPoint"/>
                    </mxGeometry>
                </mxCell>
                <mxCell id="150" value="" style="endArrow=classic;html=1;" parent="1" edge="1">
                    <mxGeometry width="50" height="50" relative="1" as="geometry">
                        <mxPoint x="140" y="724.5" as="sourcePoint"/>
                        <mxPoint x="630" y="724.5" as="targetPoint"/>
                    </mxGeometry>
                </mxCell>
                <mxCell id="151" value="ex.pc4" style="text;html=1;align=center;verticalAlign=middle;resizable=0;points=[];autosize=1;strokeColor=none;" parent="1" vertex="1">
                    <mxGeometry x="745" y="697" width="50" height="20" as="geometry"/>
                </mxCell>
                <mxCell id="152" value="" style="endArrow=classic;html=1;" parent="1" edge="1">
                    <mxGeometry width="50" height="50" relative="1" as="geometry">
                        <mxPoint x="670" y="708.71" as="sourcePoint"/>
                        <mxPoint x="740" y="709" as="targetPoint"/>
                    </mxGeometry>
                </mxCell>
                <mxCell id="153" value="" style="endArrow=none;html=1;" parent="1" edge="1">
                    <mxGeometry width="50" height="50" relative="1" as="geometry">
                        <mxPoint x="695" y="714" as="sourcePoint"/>
                        <mxPoint x="705" y="704" as="targetPoint"/>
                    </mxGeometry>
                </mxCell>
                <mxCell id="154" value="32" style="text;html=1;align=center;verticalAlign=middle;resizable=0;points=[];autosize=1;strokeColor=none;" parent="1" vertex="1">
                    <mxGeometry x="694" y="706" width="30" height="20" as="geometry"/>
                </mxCell>
                <mxCell id="155" value="ex.pc" style="text;html=1;align=center;verticalAlign=middle;resizable=0;points=[];autosize=1;strokeColor=none;" parent="1" vertex="1">
                    <mxGeometry x="747" y="713" width="40" height="20" as="geometry"/>
                </mxCell>
                <mxCell id="156" value="" style="endArrow=classic;html=1;" parent="1" edge="1">
                    <mxGeometry width="50" height="50" relative="1" as="geometry">
                        <mxPoint x="670" y="724.71" as="sourcePoint"/>
                        <mxPoint x="740" y="725" as="targetPoint"/>
                    </mxGeometry>
                </mxCell>
                <mxCell id="157" value="" style="endArrow=none;html=1;" parent="1" edge="1">
                    <mxGeometry width="50" height="50" relative="1" as="geometry">
                        <mxPoint x="695" y="730" as="sourcePoint"/>
                        <mxPoint x="705" y="720" as="targetPoint"/>
                    </mxGeometry>
                </mxCell>
                <mxCell id="158" value="32" style="text;html=1;align=center;verticalAlign=middle;resizable=0;points=[];autosize=1;strokeColor=none;" parent="1" vertex="1">
                    <mxGeometry x="694" y="722" width="30" height="20" as="geometry"/>
                </mxCell>
                <mxCell id="159" value="&lt;b&gt;Memory&lt;/b&gt;" style="text;html=1;align=center;verticalAlign=middle;resizable=0;points=[];autosize=1;strokeColor=none;" parent="1" vertex="1">
                    <mxGeometry x="-655" y="970" width="60" height="20" as="geometry"/>
                </mxCell>
                <mxCell id="161" value="&lt;b&gt;Writeback&lt;/b&gt;" style="text;html=1;align=center;verticalAlign=middle;resizable=0;points=[];autosize=1;strokeColor=none;" parent="1" vertex="1">
                    <mxGeometry x="550" y="1055" width="70" height="20" as="geometry"/>
                </mxCell>
                <mxCell id="162" value="o_ihit" style="text;html=1;align=center;verticalAlign=middle;resizable=0;points=[];autosize=1;strokeColor=none;" parent="1" vertex="1">
                    <mxGeometry x="-569" y="361" width="40" height="20" as="geometry"/>
                </mxCell>
                <mxCell id="163" value="i_iren" style="text;html=1;align=center;verticalAlign=middle;resizable=0;points=[];autosize=1;strokeColor=none;" parent="1" vertex="1">
                    <mxGeometry x="-635" y="360" width="40" height="20" as="geometry"/>
                </mxCell>
                <mxCell id="164" value="" style="endArrow=classic;html=1;" parent="1" edge="1">
                    <mxGeometry width="50" height="50" relative="1" as="geometry">
                        <mxPoint x="-410" y="349.71000000000004" as="sourcePoint"/>
                        <mxPoint x="-340" y="349.71000000000004" as="targetPoint"/>
                    </mxGeometry>
                </mxCell>
                <mxCell id="165" value="" style="endArrow=none;html=1;" parent="1" edge="1">
                    <mxGeometry width="50" height="50" relative="1" as="geometry">
                        <mxPoint x="-380" y="355" as="sourcePoint"/>
                        <mxPoint x="-370" y="345" as="targetPoint"/>
                    </mxGeometry>
                </mxCell>
                <mxCell id="166" value="32" style="text;html=1;align=center;verticalAlign=middle;resizable=0;points=[];autosize=1;strokeColor=none;" parent="1" vertex="1">
                    <mxGeometry x="-390" y="349" width="30" height="20" as="geometry"/>
                </mxCell>
                <mxCell id="167" value="" style="endArrow=classic;html=1;" parent="1" edge="1">
                    <mxGeometry width="50" height="50" relative="1" as="geometry">
                        <mxPoint x="-520" y="371.71000000000004" as="sourcePoint"/>
                        <mxPoint x="-450" y="371.71000000000004" as="targetPoint"/>
                    </mxGeometry>
                </mxCell>
                <mxCell id="170" value="id.ihit" style="text;html=1;align=center;verticalAlign=middle;resizable=0;points=[];autosize=1;strokeColor=none;" parent="1" vertex="1">
                    <mxGeometry x="-336" y="360" width="40" height="20" as="geometry"/>
                </mxCell>
                <mxCell id="171" value="" style="endArrow=classic;html=1;" parent="1" edge="1">
                    <mxGeometry width="50" height="50" relative="1" as="geometry">
                        <mxPoint x="-410" y="371.71000000000004" as="sourcePoint"/>
                        <mxPoint x="-340" y="371.71000000000004" as="targetPoint"/>
                    </mxGeometry>
                </mxCell>
                <mxCell id="188" value="" style="rounded=0;whiteSpace=wrap;html=1;" parent="1" vertex="1">
                    <mxGeometry x="1635" y="326" width="139" height="90" as="geometry"/>
                </mxCell>
                <mxCell id="189" value="ALU" style="text;html=1;align=center;verticalAlign=middle;resizable=0;points=[];autosize=1;strokeColor=none;" parent="1" vertex="1">
                    <mxGeometry x="1684" y="306" width="40" height="20" as="geometry"/>
                </mxCell>
                <mxCell id="191" value="&lt;div&gt;i_aluop&lt;/div&gt;&lt;div&gt;&lt;br&gt;&lt;/div&gt;&lt;div&gt;i_alua&lt;/div&gt;&lt;div&gt;&lt;br&gt;&lt;/div&gt;&lt;div&gt;i_alub&lt;/div&gt;" style="text;html=1;align=left;verticalAlign=middle;resizable=0;points=[];autosize=1;strokeColor=none;" parent="1" vertex="1">
                    <mxGeometry x="1640" y="331" width="50" height="80" as="geometry"/>
                </mxCell>
                <mxCell id="192" value="&lt;div&gt;o_neg&lt;/div&gt;&lt;div&gt;o_ovf&lt;/div&gt;&lt;div&gt;o_zero&lt;/div&gt;&lt;div&gt;&lt;br&gt;&lt;/div&gt;&lt;div&gt;o_alu_result&lt;/div&gt;" style="text;html=1;align=right;verticalAlign=middle;resizable=0;points=[];autosize=1;strokeColor=none;" parent="1" vertex="1">
                    <mxGeometry x="1690" y="331" width="80" height="80" as="geometry"/>
                </mxCell>
                <mxCell id="195" value="" style="endArrow=classic;html=1;" parent="1" edge="1">
                    <mxGeometry width="50" height="50" relative="1" as="geometry">
                        <mxPoint x="1433.81" y="289" as="sourcePoint"/>
                        <mxPoint x="1471.9299999999998" y="289.25" as="targetPoint"/>
                    </mxGeometry>
                </mxCell>
                <mxCell id="196" value="ex.rs1_dat&lt;br&gt;wb.rs1_dat&lt;br&gt;mem.rs1_dat" style="text;html=1;align=right;verticalAlign=middle;resizable=0;points=[];autosize=1;strokeColor=none;" parent="1" vertex="1">
                    <mxGeometry x="1337.81" y="277" width="90" height="50" as="geometry"/>
                </mxCell>
                <mxCell id="218" value="exe.imm32" style="text;html=1;align=center;verticalAlign=middle;resizable=0;points=[];autosize=1;strokeColor=none;" parent="1" vertex="1">
                    <mxGeometry x="1357.8200000000002" y="492" width="70" height="20" as="geometry"/>
                </mxCell>
                <mxCell id="223" value="" style="endArrow=none;html=1;" parent="1" edge="1">
                    <mxGeometry width="50" height="50" relative="1" as="geometry">
                        <mxPoint x="1800" y="405" as="sourcePoint"/>
                        <mxPoint x="1810" y="395" as="targetPoint"/>
                    </mxGeometry>
                </mxCell>
                <mxCell id="224" value="32" style="text;html=1;align=center;verticalAlign=middle;resizable=0;points=[];autosize=1;strokeColor=none;" parent="1" vertex="1">
                    <mxGeometry x="1795" y="396" width="30" height="20" as="geometry"/>
                </mxCell>
                <mxCell id="227" value="" style="endArrow=classic;html=1;" parent="1" edge="1">
                    <mxGeometry width="50" height="50" relative="1" as="geometry">
                        <mxPoint x="1477.81" y="503" as="sourcePoint"/>
                        <mxPoint x="1546.81" y="556" as="targetPoint"/>
                        <Array as="points">
                            <mxPoint x="1507.81" y="503"/>
                            <mxPoint x="1507.81" y="556"/>
                        </Array>
                    </mxGeometry>
                </mxCell>
                <mxCell id="228" value="" style="endArrow=classic;html=1;" parent="1" edge="1">
                    <mxGeometry width="50" height="50" relative="1" as="geometry">
                        <mxPoint x="1585" y="556" as="sourcePoint"/>
                        <mxPoint x="1635" y="606" as="targetPoint"/>
                        <Array as="points">
                            <mxPoint x="1635" y="556"/>
                        </Array>
                    </mxGeometry>
                </mxCell>
                <mxCell id="229" value="" style="endArrow=none;html=1;" parent="1" edge="1">
                    <mxGeometry width="50" height="50" relative="1" as="geometry">
                        <mxPoint x="1599" y="561" as="sourcePoint"/>
                        <mxPoint x="1609" y="551" as="targetPoint"/>
                    </mxGeometry>
                </mxCell>
                <mxCell id="230" value="32" style="text;html=1;align=center;verticalAlign=middle;resizable=0;points=[];autosize=1;strokeColor=none;" parent="1" vertex="1">
                    <mxGeometry x="1589" y="552" width="30" height="20" as="geometry"/>
                </mxCell>
                <mxCell id="233" value="exe.pc" style="text;html=1;align=center;verticalAlign=middle;resizable=0;points=[];autosize=1;strokeColor=none;" parent="1" vertex="1">
                    <mxGeometry x="1375" y="606" width="50" height="20" as="geometry"/>
                </mxCell>
                <mxCell id="234" value="+" style="ellipse;whiteSpace=wrap;html=1;aspect=fixed;" parent="1" vertex="1">
                    <mxGeometry x="1625" y="606" width="20" height="20" as="geometry"/>
                </mxCell>
                <mxCell id="235" value="" style="endArrow=classic;html=1;" parent="1" edge="1">
                    <mxGeometry width="50" height="50" relative="1" as="geometry">
                        <mxPoint x="1435" y="617" as="sourcePoint"/>
                        <mxPoint x="1624.9399999999998" y="617" as="targetPoint"/>
                    </mxGeometry>
                </mxCell>
                <mxCell id="236" value="" style="endArrow=none;html=1;" parent="1" edge="1">
                    <mxGeometry width="50" height="50" relative="1" as="geometry">
                        <mxPoint x="1460" y="622" as="sourcePoint"/>
                        <mxPoint x="1470" y="612" as="targetPoint"/>
                    </mxGeometry>
                </mxCell>
                <mxCell id="237" value="32" style="text;html=1;align=center;verticalAlign=middle;resizable=0;points=[];autosize=1;strokeColor=none;" parent="1" vertex="1">
                    <mxGeometry x="1455" y="613" width="30" height="20" as="geometry"/>
                </mxCell>
                <mxCell id="239" value="" style="endArrow=classic;html=1;" parent="1" edge="1">
                    <mxGeometry width="50" height="50" relative="1" as="geometry">
                        <mxPoint x="1644.9999999999998" y="617" as="sourcePoint"/>
                        <mxPoint x="1845" y="617" as="targetPoint"/>
                    </mxGeometry>
                </mxCell>
                <mxCell id="240" value="" style="endArrow=none;html=1;" parent="1" edge="1">
                    <mxGeometry width="50" height="50" relative="1" as="geometry">
                        <mxPoint x="1800" y="622.5" as="sourcePoint"/>
                        <mxPoint x="1810" y="612.5" as="targetPoint"/>
                    </mxGeometry>
                </mxCell>
                <mxCell id="241" value="32" style="text;html=1;align=center;verticalAlign=middle;resizable=0;points=[];autosize=1;strokeColor=none;" parent="1" vertex="1">
                    <mxGeometry x="1795" y="613.5" width="30" height="20" as="geometry"/>
                </mxCell>
                <mxCell id="242" value="" style="rounded=0;whiteSpace=wrap;html=1;fillColor=#ffe6cc;strokeColor=#d79b00;" parent="1" vertex="1">
                    <mxGeometry x="1845" y="316" width="40" height="410" as="geometry"/>
                </mxCell>
                <mxCell id="243" value="EX/M&lt;br&gt;regs" style="text;html=1;align=center;verticalAlign=middle;resizable=0;points=[];autosize=1;strokeColor=none;" parent="1" vertex="1">
                    <mxGeometry x="1845" y="329" width="40" height="30" as="geometry"/>
                </mxCell>
                <mxCell id="244" value="" style="endArrow=classic;html=1;" parent="1" edge="1">
                    <mxGeometry width="50" height="50" relative="1" as="geometry">
                        <mxPoint x="1774.5" y="399.9000000000001" as="sourcePoint"/>
                        <mxPoint x="1845.5" y="399.9000000000001" as="targetPoint"/>
                    </mxGeometry>
                </mxCell>
                <mxCell id="245" value="mem.alu_result" style="text;html=1;align=center;verticalAlign=middle;resizable=0;points=[];autosize=1;strokeColor=none;" parent="1" vertex="1">
                    <mxGeometry x="1955" y="388" width="100" height="20" as="geometry"/>
                </mxCell>
                <mxCell id="246" value="" style="endArrow=none;html=1;" parent="1" edge="1">
                    <mxGeometry width="50" height="50" relative="1" as="geometry">
                        <mxPoint x="1910.5" y="405" as="sourcePoint"/>
                        <mxPoint x="1920.5" y="395" as="targetPoint"/>
                    </mxGeometry>
                </mxCell>
                <mxCell id="247" value="32" style="text;html=1;align=center;verticalAlign=middle;resizable=0;points=[];autosize=1;strokeColor=none;" parent="1" vertex="1">
                    <mxGeometry x="1905.5" y="396" width="30" height="20" as="geometry"/>
                </mxCell>
                <mxCell id="248" value="" style="endArrow=classic;html=1;" parent="1" edge="1">
                    <mxGeometry width="50" height="50" relative="1" as="geometry">
                        <mxPoint x="1885" y="399.9000000000001" as="sourcePoint"/>
                        <mxPoint x="1956" y="399.9000000000001" as="targetPoint"/>
                    </mxGeometry>
                </mxCell>
                <mxCell id="250" value="mem.br_adr" style="text;html=1;align=center;verticalAlign=middle;resizable=0;points=[];autosize=1;strokeColor=none;" parent="1" vertex="1">
                    <mxGeometry x="1965" y="606" width="80" height="20" as="geometry"/>
                </mxCell>
                <mxCell id="251" value="" style="endArrow=none;html=1;" parent="1" edge="1">
                    <mxGeometry width="50" height="50" relative="1" as="geometry">
                        <mxPoint x="1910.5" y="622" as="sourcePoint"/>
                        <mxPoint x="1920.5" y="612" as="targetPoint"/>
                    </mxGeometry>
                </mxCell>
                <mxCell id="252" value="32" style="text;html=1;align=center;verticalAlign=middle;resizable=0;points=[];autosize=1;strokeColor=none;" parent="1" vertex="1">
                    <mxGeometry x="1905.5" y="613" width="30" height="20" as="geometry"/>
                </mxCell>
                <mxCell id="253" value="" style="endArrow=classic;html=1;" parent="1" edge="1">
                    <mxGeometry width="50" height="50" relative="1" as="geometry">
                        <mxPoint x="1885" y="616.9000000000001" as="sourcePoint"/>
                        <mxPoint x="1956" y="616.9000000000001" as="targetPoint"/>
                    </mxGeometry>
                </mxCell>
                <mxCell id="254" value="" style="endArrow=classic;html=1;" parent="1" edge="1">
                    <mxGeometry width="50" height="50" relative="1" as="geometry">
                        <mxPoint x="1774" y="344.71000000000004" as="sourcePoint"/>
                        <mxPoint x="1845" y="344.71000000000004" as="targetPoint"/>
                    </mxGeometry>
                </mxCell>
                <mxCell id="255" value="" style="endArrow=classic;html=1;" parent="1" edge="1">
                    <mxGeometry width="50" height="50" relative="1" as="geometry">
                        <mxPoint x="1774" y="358.80999999999995" as="sourcePoint"/>
                        <mxPoint x="1845" y="358.80999999999995" as="targetPoint"/>
                    </mxGeometry>
                </mxCell>
                <mxCell id="256" value="" style="endArrow=classic;html=1;" parent="1" edge="1">
                    <mxGeometry width="50" height="50" relative="1" as="geometry">
                        <mxPoint x="1773.5" y="372.9000000000001" as="sourcePoint"/>
                        <mxPoint x="1844.5" y="372.9000000000001" as="targetPoint"/>
                    </mxGeometry>
                </mxCell>
                <mxCell id="257" value="" style="endArrow=classic;html=1;" parent="1" edge="1">
                    <mxGeometry width="50" height="50" relative="1" as="geometry">
                        <mxPoint x="1885.5" y="345" as="sourcePoint"/>
                        <mxPoint x="1956.5" y="345" as="targetPoint"/>
                    </mxGeometry>
                </mxCell>
                <mxCell id="258" value="" style="endArrow=classic;html=1;" parent="1" edge="1">
                    <mxGeometry width="50" height="50" relative="1" as="geometry">
                        <mxPoint x="1885.5" y="359.0999999999999" as="sourcePoint"/>
                        <mxPoint x="1956.5" y="359.0999999999999" as="targetPoint"/>
                    </mxGeometry>
                </mxCell>
                <mxCell id="259" value="" style="endArrow=classic;html=1;" parent="1" edge="1">
                    <mxGeometry width="50" height="50" relative="1" as="geometry">
                        <mxPoint x="1885" y="373.19000000000005" as="sourcePoint"/>
                        <mxPoint x="1956" y="373.19000000000005" as="targetPoint"/>
                    </mxGeometry>
                </mxCell>
                <mxCell id="260" value="mem.neg&lt;br&gt;mem.ovf&lt;br&gt;mem.zero" style="text;html=1;align=left;verticalAlign=middle;resizable=0;points=[];autosize=1;strokeColor=none;" parent="1" vertex="1">
                    <mxGeometry x="1962" y="332" width="70" height="50" as="geometry"/>
                </mxCell>
                <mxCell id="261" value="" style="endArrow=classic;html=1;fillColor=#dae8fc;strokeColor=#6c8ebf;" parent="1" edge="1">
                    <mxGeometry width="50" height="50" relative="1" as="geometry">
                        <mxPoint x="1436" y="666" as="sourcePoint"/>
                        <mxPoint x="1845" y="666" as="targetPoint"/>
                    </mxGeometry>
                </mxCell>
                <mxCell id="264" value="exe.branch&lt;br&gt;&lt;span&gt;exe.mem_rd&lt;/span&gt;&lt;br&gt;&lt;span&gt;exe.mem_wr&lt;br&gt;exe.instr[11:7]&lt;br&gt;&lt;/span&gt;" style="text;html=1;align=right;verticalAlign=middle;resizable=0;points=[];autosize=1;strokeColor=none;" parent="1" vertex="1">
                    <mxGeometry x="1343" y="656" width="90" height="60" as="geometry"/>
                </mxCell>
                <mxCell id="266" value="ex.alusrca" style="text;html=1;align=center;verticalAlign=middle;resizable=0;points=[];autosize=1;strokeColor=none;" parent="1" vertex="1">
                    <mxGeometry x="1532.2" y="283" width="70" height="20" as="geometry"/>
                </mxCell>
                <mxCell id="273" value="" style="endArrow=classic;html=1;fillColor=#dae8fc;strokeColor=#6c8ebf;" parent="1" edge="1">
                    <mxGeometry width="50" height="50" relative="1" as="geometry">
                        <mxPoint x="1885" y="665.5799999999999" as="sourcePoint"/>
                        <mxPoint x="1956" y="665.5799999999999" as="targetPoint"/>
                    </mxGeometry>
                </mxCell>
                <mxCell id="277" value="" style="rounded=0;whiteSpace=wrap;html=1;fillColor=#ffe6cc;strokeColor=#d79b00;" parent="1" vertex="1">
                    <mxGeometry x="-680" y="1210" width="120" height="100" as="geometry"/>
                </mxCell>
                <mxCell id="278" value="d-memory" style="text;html=1;align=center;verticalAlign=middle;resizable=0;points=[];autosize=1;strokeColor=none;" parent="1" vertex="1">
                    <mxGeometry x="-655" y="1190" width="70" height="20" as="geometry"/>
                </mxCell>
                <mxCell id="279" value="i_dadr&lt;br&gt;&lt;span style=&quot;text-align: center&quot;&gt;i_dren&lt;br&gt;i_dwen&lt;br&gt;i_ddat&lt;br&gt;i_memop&lt;br&gt;&lt;/span&gt;" style="text;html=1;align=left;verticalAlign=middle;resizable=0;points=[];autosize=1;strokeColor=none;" parent="1" vertex="1">
                    <mxGeometry x="-677" y="1218" width="60" height="80" as="geometry"/>
                </mxCell>
                <mxCell id="280" value="o_ddat&lt;br&gt;&lt;span style=&quot;text-align: center&quot;&gt;o_dhit&lt;/span&gt;" style="text;html=1;align=right;verticalAlign=middle;resizable=0;points=[];autosize=1;strokeColor=none;" parent="1" vertex="1">
                    <mxGeometry x="-615" y="1234" width="50" height="30" as="geometry"/>
                </mxCell>
                <mxCell id="283" value="" style="endArrow=classic;html=1;" parent="1" edge="1">
                    <mxGeometry width="50" height="50" relative="1" as="geometry">
                        <mxPoint x="-755" y="1231" as="sourcePoint"/>
                        <mxPoint x="-680" y="1230.8999999999999" as="targetPoint"/>
                    </mxGeometry>
                </mxCell>
                <mxCell id="284" value="" style="endArrow=classic;html=1;fillColor=#dae8fc;strokeColor=#6c8ebf;" parent="1" edge="1">
                    <mxGeometry width="50" height="50" relative="1" as="geometry">
                        <mxPoint x="-755" y="1245" as="sourcePoint"/>
                        <mxPoint x="-680" y="1244.88" as="targetPoint"/>
                    </mxGeometry>
                </mxCell>
                <mxCell id="285" value="" style="endArrow=classic;html=1;fillColor=#dae8fc;strokeColor=#6c8ebf;" parent="1" edge="1">
                    <mxGeometry width="50" height="50" relative="1" as="geometry">
                        <mxPoint x="-755" y="1259" as="sourcePoint"/>
                        <mxPoint x="-680" y="1258.77" as="targetPoint"/>
                    </mxGeometry>
                </mxCell>
                <mxCell id="286" value="" style="endArrow=classic;html=1;exitX=0.5;exitY=0;exitDx=0;exitDy=0;" parent="1" source="529" edge="1">
                    <mxGeometry width="50" height="50" relative="1" as="geometry">
                        <mxPoint x="-755" y="1273" as="sourcePoint"/>
                        <mxPoint x="-680" y="1272.88" as="targetPoint"/>
                    </mxGeometry>
                </mxCell>
                <mxCell id="287" value="" style="endArrow=classic;html=1;" parent="1" edge="1">
                    <mxGeometry width="50" height="50" relative="1" as="geometry">
                        <mxPoint x="-560" y="1243.75" as="sourcePoint"/>
                        <mxPoint x="-505" y="1244" as="targetPoint"/>
                    </mxGeometry>
                </mxCell>
                <mxCell id="289" value="" style="endArrow=none;html=1;" parent="1" edge="1">
                    <mxGeometry width="50" height="50" relative="1" as="geometry">
                        <mxPoint x="-722" y="1236" as="sourcePoint"/>
                        <mxPoint x="-712" y="1226" as="targetPoint"/>
                    </mxGeometry>
                </mxCell>
                <mxCell id="290" value="32" style="text;html=1;align=center;verticalAlign=middle;resizable=0;points=[];autosize=1;strokeColor=none;" parent="1" vertex="1">
                    <mxGeometry x="-725" y="1226" width="30" height="20" as="geometry"/>
                </mxCell>
                <mxCell id="291" value="" style="endArrow=none;html=1;" parent="1" edge="1">
                    <mxGeometry width="50" height="50" relative="1" as="geometry">
                        <mxPoint x="-722" y="1278" as="sourcePoint"/>
                        <mxPoint x="-712" y="1268" as="targetPoint"/>
                    </mxGeometry>
                </mxCell>
                <mxCell id="292" value="32" style="text;html=1;align=center;verticalAlign=middle;resizable=0;points=[];autosize=1;strokeColor=none;" parent="1" vertex="1">
                    <mxGeometry x="-725" y="1268" width="30" height="20" as="geometry"/>
                </mxCell>
                <mxCell id="293" value="" style="endArrow=none;html=1;" parent="1" edge="1">
                    <mxGeometry width="50" height="50" relative="1" as="geometry">
                        <mxPoint x="-542" y="1249" as="sourcePoint"/>
                        <mxPoint x="-532" y="1239" as="targetPoint"/>
                    </mxGeometry>
                </mxCell>
                <mxCell id="294" value="32" style="text;html=1;align=center;verticalAlign=middle;resizable=0;points=[];autosize=1;strokeColor=none;" parent="1" vertex="1">
                    <mxGeometry x="-545" y="1239" width="30" height="20" as="geometry"/>
                </mxCell>
                <mxCell id="297" value="wb.memdat" style="text;html=1;align=center;verticalAlign=middle;resizable=0;points=[];autosize=1;strokeColor=none;" parent="1" vertex="1">
                    <mxGeometry x="-405" y="1233" width="80" height="20" as="geometry"/>
                </mxCell>
                <mxCell id="298" value="&lt;br&gt;&lt;span style=&quot;text-align: center&quot;&gt;mem.alu_result&lt;br&gt;&lt;/span&gt;mem.mem_rd&lt;br&gt;mem.mem_wr&lt;br&gt;&lt;span style=&quot;text-align: center&quot;&gt;&lt;br&gt;&lt;br&gt;&lt;/span&gt;" style="text;html=1;align=right;verticalAlign=middle;resizable=0;points=[];autosize=1;strokeColor=none;" parent="1" vertex="1">
                    <mxGeometry x="-830" y="1163" width="100" height="90" as="geometry"/>
                </mxCell>
                <mxCell id="299" value="" style="endArrow=classic;html=1;fillColor=#dae8fc;strokeColor=#6c8ebf;" parent="1" edge="1">
                    <mxGeometry width="50" height="50" relative="1" as="geometry">
                        <mxPoint x="1436" y="679" as="sourcePoint"/>
                        <mxPoint x="1845" y="679" as="targetPoint"/>
                    </mxGeometry>
                </mxCell>
                <mxCell id="300" value="" style="endArrow=classic;html=1;fillColor=#dae8fc;strokeColor=#6c8ebf;" parent="1" edge="1">
                    <mxGeometry width="50" height="50" relative="1" as="geometry">
                        <mxPoint x="1436" y="693" as="sourcePoint"/>
                        <mxPoint x="1845" y="693" as="targetPoint"/>
                    </mxGeometry>
                </mxCell>
                <mxCell id="301" value="" style="endArrow=classic;html=1;fillColor=#dae8fc;strokeColor=#6c8ebf;" parent="1" edge="1">
                    <mxGeometry width="50" height="50" relative="1" as="geometry">
                        <mxPoint x="1885" y="678.76" as="sourcePoint"/>
                        <mxPoint x="1956" y="678.76" as="targetPoint"/>
                    </mxGeometry>
                </mxCell>
                <mxCell id="302" value="" style="endArrow=classic;html=1;fillColor=#dae8fc;strokeColor=#6c8ebf;" parent="1" edge="1">
                    <mxGeometry width="50" height="50" relative="1" as="geometry">
                        <mxPoint x="1885" y="691.7599999999998" as="sourcePoint"/>
                        <mxPoint x="1956" y="691.7599999999998" as="targetPoint"/>
                    </mxGeometry>
                </mxCell>
                <mxCell id="303" value="&lt;span&gt;mem&lt;/span&gt;.branch&lt;br&gt;&lt;span&gt;mem&lt;/span&gt;&lt;span&gt;.mem_rd&lt;/span&gt;&lt;br&gt;&lt;span&gt;mem&lt;/span&gt;&lt;span&gt;.mem_wr&lt;br&gt;mem.dest_reg&lt;br&gt;&lt;/span&gt;" style="text;html=1;align=left;verticalAlign=middle;resizable=0;points=[];autosize=1;strokeColor=none;" parent="1" vertex="1">
                    <mxGeometry x="1962" y="654" width="90" height="60" as="geometry"/>
                </mxCell>
                <mxCell id="304" value="" style="rounded=0;whiteSpace=wrap;html=1;fillColor=#ffe6cc;strokeColor=#d79b00;" parent="1" vertex="1">
                    <mxGeometry x="-505" y="1160" width="40" height="240" as="geometry"/>
                </mxCell>
                <mxCell id="305" value="M/WB&lt;br&gt;regs" style="text;html=1;align=center;verticalAlign=middle;resizable=0;points=[];autosize=1;strokeColor=none;" parent="1" vertex="1">
                    <mxGeometry x="-509" y="1205" width="50" height="30" as="geometry"/>
                </mxCell>
                <mxCell id="306" value="" style="endArrow=classic;html=1;" parent="1" edge="1">
                    <mxGeometry width="50" height="50" relative="1" as="geometry">
                        <mxPoint x="-465" y="1243.75" as="sourcePoint"/>
                        <mxPoint x="-405" y="1243.75" as="targetPoint"/>
                    </mxGeometry>
                </mxCell>
                <mxCell id="307" value="" style="endArrow=none;html=1;" parent="1" edge="1">
                    <mxGeometry width="50" height="50" relative="1" as="geometry">
                        <mxPoint x="-447" y="1249" as="sourcePoint"/>
                        <mxPoint x="-437" y="1239" as="targetPoint"/>
                    </mxGeometry>
                </mxCell>
                <mxCell id="308" value="32" style="text;html=1;align=center;verticalAlign=middle;resizable=0;points=[];autosize=1;strokeColor=none;" parent="1" vertex="1">
                    <mxGeometry x="-450" y="1239" width="30" height="20" as="geometry"/>
                </mxCell>
                <mxCell id="309" value="" style="endArrow=classic;html=1;fillColor=#dae8fc;" parent="1" edge="1">
                    <mxGeometry width="50" height="50" relative="1" as="geometry">
                        <mxPoint x="1436" y="707.24" as="sourcePoint"/>
                        <mxPoint x="1845" y="707.24" as="targetPoint"/>
                    </mxGeometry>
                </mxCell>
                <mxCell id="310" value="" style="endArrow=classic;html=1;fillColor=#dae8fc;" parent="1" edge="1">
                    <mxGeometry width="50" height="50" relative="1" as="geometry">
                        <mxPoint x="1885" y="705.9999999999998" as="sourcePoint"/>
                        <mxPoint x="1956" y="705.9999999999998" as="targetPoint"/>
                    </mxGeometry>
                </mxCell>
                <mxCell id="311" value="" style="endArrow=none;html=1;" parent="1" edge="1">
                    <mxGeometry width="50" height="50" relative="1" as="geometry">
                        <mxPoint x="1460" y="712" as="sourcePoint"/>
                        <mxPoint x="1470" y="702" as="targetPoint"/>
                    </mxGeometry>
                </mxCell>
                <mxCell id="312" value="32" style="text;html=1;align=center;verticalAlign=middle;resizable=0;points=[];autosize=1;strokeColor=none;" parent="1" vertex="1">
                    <mxGeometry x="1455" y="703" width="30" height="20" as="geometry"/>
                </mxCell>
                <mxCell id="313" value="" style="endArrow=none;html=1;" parent="1" edge="1">
                    <mxGeometry width="50" height="50" relative="1" as="geometry">
                        <mxPoint x="1910.5" y="711" as="sourcePoint"/>
                        <mxPoint x="1920.5" y="701" as="targetPoint"/>
                    </mxGeometry>
                </mxCell>
                <mxCell id="314" value="32" style="text;html=1;align=center;verticalAlign=middle;resizable=0;points=[];autosize=1;strokeColor=none;" parent="1" vertex="1">
                    <mxGeometry x="1905.5" y="702" width="30" height="20" as="geometry"/>
                </mxCell>
                <mxCell id="315" value="mem.dest_reg" style="text;html=1;align=center;verticalAlign=middle;resizable=0;points=[];autosize=1;strokeColor=none;" parent="1" vertex="1">
                    <mxGeometry x="-895" y="1380" width="90" height="20" as="geometry"/>
                </mxCell>
                <mxCell id="316" value="wb.dest_reg" style="text;html=1;align=center;verticalAlign=middle;resizable=0;points=[];autosize=1;strokeColor=none;" parent="1" vertex="1">
                    <mxGeometry x="-394" y="1390" width="80" height="20" as="geometry"/>
                </mxCell>
                <mxCell id="319" value="" style="shape=trapezoid;perimeter=trapezoidPerimeter;whiteSpace=wrap;html=1;fixedSize=1;rotation=90;size=10.5;" parent="1" vertex="1">
                    <mxGeometry x="577.63" y="1198" width="60.5" height="24" as="geometry"/>
                </mxCell>
                <mxCell id="320" value="0&lt;br&gt;&lt;br&gt;1" style="text;html=1;align=center;verticalAlign=middle;resizable=0;points=[];autosize=1;strokeColor=none;" parent="1" vertex="1">
                    <mxGeometry x="594.63" y="1185" width="20" height="50" as="geometry"/>
                </mxCell>
                <mxCell id="321" value="" style="endArrow=classic;html=1;" parent="1" edge="1">
                    <mxGeometry width="50" height="50" relative="1" as="geometry">
                        <mxPoint x="490" y="1195" as="sourcePoint"/>
                        <mxPoint x="595.8699999999999" y="1195" as="targetPoint"/>
                    </mxGeometry>
                </mxCell>
                <mxCell id="322" value="" style="endArrow=none;html=1;" parent="1" edge="1">
                    <mxGeometry width="50" height="50" relative="1" as="geometry">
                        <mxPoint x="514" y="1200" as="sourcePoint"/>
                        <mxPoint x="524" y="1190" as="targetPoint"/>
                    </mxGeometry>
                </mxCell>
                <mxCell id="323" value="32" style="text;html=1;align=center;verticalAlign=middle;resizable=0;points=[];autosize=1;strokeColor=none;" parent="1" vertex="1">
                    <mxGeometry x="509" y="1191" width="30" height="20" as="geometry"/>
                </mxCell>
                <mxCell id="324" value="" style="endArrow=classic;html=1;" parent="1" edge="1">
                    <mxGeometry width="50" height="50" relative="1" as="geometry">
                        <mxPoint x="490" y="1227" as="sourcePoint"/>
                        <mxPoint x="595.8699999999999" y="1227" as="targetPoint"/>
                    </mxGeometry>
                </mxCell>
                <mxCell id="325" value="" style="endArrow=none;html=1;" parent="1" edge="1">
                    <mxGeometry width="50" height="50" relative="1" as="geometry">
                        <mxPoint x="515" y="1232" as="sourcePoint"/>
                        <mxPoint x="525" y="1222" as="targetPoint"/>
                    </mxGeometry>
                </mxCell>
                <mxCell id="326" value="32" style="text;html=1;align=center;verticalAlign=middle;resizable=0;points=[];autosize=1;strokeColor=none;" parent="1" vertex="1">
                    <mxGeometry x="510" y="1223" width="30" height="20" as="geometry"/>
                </mxCell>
                <mxCell id="327" value="wb.alu_result" style="text;html=1;align=center;verticalAlign=middle;resizable=0;points=[];autosize=1;strokeColor=none;" parent="1" vertex="1">
                    <mxGeometry x="395" y="1185" width="90" height="20" as="geometry"/>
                </mxCell>
                <mxCell id="328" value="wb.memdat" style="text;html=1;align=center;verticalAlign=middle;resizable=0;points=[];autosize=1;strokeColor=none;" parent="1" vertex="1">
                    <mxGeometry x="405" y="1215" width="80" height="20" as="geometry"/>
                </mxCell>
                <mxCell id="329" value="" style="endArrow=classic;html=1;fillColor=#dae8fc;strokeColor=#6c8ebf;" parent="1" edge="1">
                    <mxGeometry width="50" height="50" relative="1" as="geometry">
                        <mxPoint x="489" y="1165" as="sourcePoint"/>
                        <mxPoint x="606.75" y="1185" as="targetPoint"/>
                        <Array as="points">
                            <mxPoint x="607" y="1165"/>
                        </Array>
                    </mxGeometry>
                </mxCell>
                <mxCell id="330" value="wb.mem2reg" style="text;html=1;align=center;verticalAlign=middle;resizable=0;points=[];autosize=1;strokeColor=none;" parent="1" vertex="1">
                    <mxGeometry x="402" y="1155" width="80" height="20" as="geometry"/>
                </mxCell>
                <mxCell id="332" value="" style="endArrow=classic;html=1;strokeColor=#000000;" parent="1" edge="1">
                    <mxGeometry width="50" height="50" relative="1" as="geometry">
                        <mxPoint x="-745" y="1231" as="sourcePoint"/>
                        <mxPoint x="-505" y="1181" as="targetPoint"/>
                        <Array as="points">
                            <mxPoint x="-725" y="1231"/>
                            <mxPoint x="-725" y="1181"/>
                        </Array>
                    </mxGeometry>
                </mxCell>
                <mxCell id="333" value="wb.alu_result" style="text;html=1;align=center;verticalAlign=middle;resizable=0;points=[];autosize=1;strokeColor=none;" parent="1" vertex="1">
                    <mxGeometry x="-404" y="1170" width="90" height="20" as="geometry"/>
                </mxCell>
                <mxCell id="334" value="" style="endArrow=classic;html=1;" parent="1" edge="1">
                    <mxGeometry width="50" height="50" relative="1" as="geometry">
                        <mxPoint x="-465" y="1180.75" as="sourcePoint"/>
                        <mxPoint x="-405" y="1180.75" as="targetPoint"/>
                    </mxGeometry>
                </mxCell>
                <mxCell id="335" value="" style="endArrow=none;html=1;" parent="1" edge="1">
                    <mxGeometry width="50" height="50" relative="1" as="geometry">
                        <mxPoint x="-447" y="1186" as="sourcePoint"/>
                        <mxPoint x="-437" y="1176" as="targetPoint"/>
                    </mxGeometry>
                </mxCell>
                <mxCell id="336" value="32" style="text;html=1;align=center;verticalAlign=middle;resizable=0;points=[];autosize=1;strokeColor=none;" parent="1" vertex="1">
                    <mxGeometry x="-450" y="1176" width="30" height="20" as="geometry"/>
                </mxCell>
                <mxCell id="337" value="" style="endArrow=classic;html=1;strokeColor=#000000;" parent="1" edge="1">
                    <mxGeometry width="50" height="50" relative="1" as="geometry">
                        <mxPoint x="620" y="1211" as="sourcePoint"/>
                        <mxPoint x="690" y="1211" as="targetPoint"/>
                    </mxGeometry>
                </mxCell>
                <mxCell id="338" value="" style="endArrow=none;html=1;" parent="1" edge="1">
                    <mxGeometry width="50" height="50" relative="1" as="geometry">
                        <mxPoint x="645" y="1216" as="sourcePoint"/>
                        <mxPoint x="655" y="1206" as="targetPoint"/>
                    </mxGeometry>
                </mxCell>
                <mxCell id="339" value="32" style="text;html=1;align=center;verticalAlign=middle;resizable=0;points=[];autosize=1;strokeColor=none;" parent="1" vertex="1">
                    <mxGeometry x="640" y="1207" width="30" height="20" as="geometry"/>
                </mxCell>
                <mxCell id="340" value="reg_wr_dat" style="text;html=1;align=center;verticalAlign=middle;resizable=0;points=[];autosize=1;strokeColor=none;" parent="1" vertex="1">
                    <mxGeometry x="690" y="1200" width="80" height="20" as="geometry"/>
                </mxCell>
                <mxCell id="341" value="" style="endArrow=classic;html=1;fillColor=#dae8fc;strokeColor=#6c8ebf;" parent="1" edge="1">
                    <mxGeometry width="50" height="50" relative="1" as="geometry">
                        <mxPoint x="493.26" y="1275" as="sourcePoint"/>
                        <mxPoint x="690" y="1275" as="targetPoint"/>
                    </mxGeometry>
                </mxCell>
                <mxCell id="342" value="wb.&lt;span style=&quot;text-align: right&quot;&gt;reg_wr&lt;/span&gt;" style="text;html=1;align=center;verticalAlign=middle;resizable=0;points=[];autosize=1;strokeColor=none;" parent="1" vertex="1">
                    <mxGeometry x="417" y="1265" width="70" height="20" as="geometry"/>
                </mxCell>
                <mxCell id="343" value="wb.&lt;span style=&quot;text-align: right&quot;&gt;dest_reg&lt;/span&gt;" style="text;html=1;align=center;verticalAlign=middle;resizable=0;points=[];autosize=1;strokeColor=none;" parent="1" vertex="1">
                    <mxGeometry x="410" y="1285" width="80" height="20" as="geometry"/>
                </mxCell>
                <mxCell id="344" value="" style="endArrow=classic;html=1;" parent="1" edge="1">
                    <mxGeometry width="50" height="50" relative="1" as="geometry">
                        <mxPoint x="494.13" y="1295" as="sourcePoint"/>
                        <mxPoint x="690" y="1295" as="targetPoint"/>
                    </mxGeometry>
                </mxCell>
                <mxCell id="345" value="&amp;lt;&amp;lt;1" style="ellipse;whiteSpace=wrap;html=1;" parent="1" vertex="1">
                    <mxGeometry x="1546.81" y="546" width="39.13" height="20" as="geometry"/>
                </mxCell>
                <mxCell id="346" value="&lt;span style=&quot;background-color: rgb(255 , 249 , 69)&quot;&gt;NOTE: consider decoupling Imm Gen&amp;nbsp;&lt;br&gt;from Control to possibly speed up&lt;br&gt;&lt;/span&gt;" style="text;html=1;align=center;verticalAlign=middle;resizable=0;points=[];autosize=1;strokeColor=none;" parent="1" vertex="1">
                    <mxGeometry x="414" y="238" width="220" height="30" as="geometry"/>
                </mxCell>
                <mxCell id="347" value="" style="endArrow=classic;html=1;" parent="1" edge="1">
                    <mxGeometry width="50" height="50" relative="1" as="geometry">
                        <mxPoint x="510" y="258" as="sourcePoint"/>
                        <mxPoint x="440" y="340" as="targetPoint"/>
                    </mxGeometry>
                </mxCell>
                <mxCell id="348" value="instr(RD)" style="text;html=1;align=center;verticalAlign=middle;resizable=0;points=[];autosize=1;strokeColor=none;" parent="1" vertex="1">
                    <mxGeometry x="1290" y="698" width="60" height="20" as="geometry"/>
                </mxCell>
                <mxCell id="349" value="&lt;b&gt;CPU&lt;/b&gt;" style="text;html=1;align=center;verticalAlign=middle;resizable=0;points=[];autosize=1;strokeColor=none;" parent="1" vertex="1">
                    <mxGeometry x="660" y="-650" width="40" height="20" as="geometry"/>
                </mxCell>
                <mxCell id="350" value="Fetch" style="rounded=0;whiteSpace=wrap;html=1;fillColor=#ffe6cc;strokeColor=#d79b00;" parent="1" vertex="1">
                    <mxGeometry x="400" y="-500" width="70" height="80" as="geometry"/>
                </mxCell>
                <mxCell id="351" value="Decode" style="rounded=0;whiteSpace=wrap;html=1;fillColor=#ffe6cc;strokeColor=#d79b00;" parent="1" vertex="1">
                    <mxGeometry x="520" y="-500" width="70" height="80" as="geometry"/>
                </mxCell>
                <mxCell id="352" value="Execute" style="rounded=0;whiteSpace=wrap;html=1;fillColor=#ffe6cc;strokeColor=#d79b00;" parent="1" vertex="1">
                    <mxGeometry x="640" y="-500" width="70" height="80" as="geometry"/>
                </mxCell>
                <mxCell id="353" value="Memory" style="rounded=0;whiteSpace=wrap;html=1;fillColor=#ffe6cc;strokeColor=#d79b00;" parent="1" vertex="1">
                    <mxGeometry x="760" y="-500" width="70" height="80" as="geometry"/>
                </mxCell>
                <mxCell id="354" value="Writeback" style="rounded=0;whiteSpace=wrap;html=1;fillColor=#ffe6cc;strokeColor=#d79b00;" parent="1" vertex="1">
                    <mxGeometry x="880" y="-500" width="70" height="80" as="geometry"/>
                </mxCell>
                <mxCell id="355" value="" style="endArrow=classic;html=1;strokeColor=#000000;" parent="1" edge="1">
                    <mxGeometry width="50" height="50" relative="1" as="geometry">
                        <mxPoint x="470" y="-460.1199999999999" as="sourcePoint"/>
                        <mxPoint x="520" y="-460.1199999999999" as="targetPoint"/>
                    </mxGeometry>
                </mxCell>
                <mxCell id="356" value="" style="endArrow=classic;html=1;strokeColor=#000000;" parent="1" edge="1">
                    <mxGeometry width="50" height="50" relative="1" as="geometry">
                        <mxPoint x="590" y="-460.1199999999999" as="sourcePoint"/>
                        <mxPoint x="640" y="-460.1199999999999" as="targetPoint"/>
                    </mxGeometry>
                </mxCell>
                <mxCell id="357" value="" style="endArrow=classic;html=1;strokeColor=#000000;" parent="1" edge="1">
                    <mxGeometry width="50" height="50" relative="1" as="geometry">
                        <mxPoint x="710" y="-460.1199999999999" as="sourcePoint"/>
                        <mxPoint x="760" y="-460.1199999999999" as="targetPoint"/>
                    </mxGeometry>
                </mxCell>
                <mxCell id="358" value="" style="endArrow=classic;html=1;strokeColor=#000000;" parent="1" edge="1">
                    <mxGeometry width="50" height="50" relative="1" as="geometry">
                        <mxPoint x="830" y="-460.1199999999999" as="sourcePoint"/>
                        <mxPoint x="880" y="-460.1199999999999" as="targetPoint"/>
                    </mxGeometry>
                </mxCell>
                <mxCell id="360" value="Hazard / Forward" style="rounded=0;whiteSpace=wrap;html=1;fillColor=#ffe6cc;strokeColor=#d79b00;" parent="1" vertex="1">
                    <mxGeometry x="610" y="-600" width="130" height="60" as="geometry"/>
                </mxCell>
                <mxCell id="363" value="" style="endArrow=classic;startArrow=classic;html=1;strokeColor=#000000;" parent="1" edge="1">
                    <mxGeometry width="50" height="50" relative="1" as="geometry">
                        <mxPoint x="435" y="-360" as="sourcePoint"/>
                        <mxPoint x="435" y="-420" as="targetPoint"/>
                    </mxGeometry>
                </mxCell>
                <mxCell id="364" value="" style="endArrow=classic;startArrow=classic;html=1;strokeColor=#000000;" parent="1" edge="1">
                    <mxGeometry width="50" height="50" relative="1" as="geometry">
                        <mxPoint x="795.71" y="-360" as="sourcePoint"/>
                        <mxPoint x="795.71" y="-420" as="targetPoint"/>
                    </mxGeometry>
                </mxCell>
                <mxCell id="368" value="imem bus" style="text;html=1;align=center;verticalAlign=middle;resizable=0;points=[];autosize=1;strokeColor=none;" parent="1" vertex="1">
                    <mxGeometry x="400" y="-360" width="70" height="20" as="geometry"/>
                </mxCell>
                <mxCell id="369" value="dmem bus" style="text;html=1;align=center;verticalAlign=middle;resizable=0;points=[];autosize=1;strokeColor=none;" parent="1" vertex="1">
                    <mxGeometry x="760" y="-360" width="70" height="20" as="geometry"/>
                </mxCell>
                <mxCell id="370" value="" style="endArrow=classic;html=1;strokeColor=#000000;" parent="1" edge="1">
                    <mxGeometry width="50" height="50" relative="1" as="geometry">
                        <mxPoint x="310.5" y="-488.56999999999994" as="sourcePoint"/>
                        <mxPoint x="375.5" y="-488.56999999999994" as="targetPoint"/>
                    </mxGeometry>
                </mxCell>
                <mxCell id="371" value="interrupts" style="text;html=1;align=center;verticalAlign=middle;resizable=0;points=[];autosize=1;strokeColor=none;" parent="1" vertex="1">
                    <mxGeometry x="243" y="-498" width="70" height="20" as="geometry"/>
                </mxCell>
                <mxCell id="372" value="&lt;b&gt;System Top&lt;/b&gt;" style="text;html=1;align=center;verticalAlign=middle;resizable=0;points=[];autosize=1;strokeColor=none;" parent="1" vertex="1">
                    <mxGeometry x="-665" y="-750" width="80" height="20" as="geometry"/>
                </mxCell>
                <mxCell id="374" value="" style="rounded=0;whiteSpace=wrap;html=1;fillColor=#ffe6cc;strokeColor=#d79b00;" parent="1" vertex="1">
                    <mxGeometry x="-730" y="-670" width="60" height="260" as="geometry"/>
                </mxCell>
                <mxCell id="375" value="memory&lt;br&gt;wb &lt;br&gt;intercon" style="text;html=1;align=center;verticalAlign=middle;resizable=0;points=[];autosize=1;strokeColor=none;" parent="1" vertex="1">
                    <mxGeometry x="-730" y="-670" width="60" height="50" as="geometry"/>
                </mxCell>
                <mxCell id="377" value="rv32 cpu" style="rounded=1;whiteSpace=wrap;html=1;fillColor=#dae8fc;strokeColor=#6c8ebf;" parent="1" vertex="1">
                    <mxGeometry x="-890" y="-640" width="80" height="70" as="geometry"/>
                </mxCell>
                <mxCell id="378" value="" style="endArrow=classic;startArrow=classic;html=1;strokeColor=#000000;" parent="1" edge="1">
                    <mxGeometry width="50" height="50" relative="1" as="geometry">
                        <mxPoint x="-810" y="-620" as="sourcePoint"/>
                        <mxPoint x="-730" y="-620" as="targetPoint"/>
                    </mxGeometry>
                </mxCell>
                <mxCell id="379" value="" style="endArrow=classic;startArrow=classic;html=1;strokeColor=#000000;" parent="1" edge="1">
                    <mxGeometry width="50" height="50" relative="1" as="geometry">
                        <mxPoint x="-810" y="-590" as="sourcePoint"/>
                        <mxPoint x="-730" y="-590" as="targetPoint"/>
                    </mxGeometry>
                </mxCell>
                <mxCell id="380" value="debug" style="rounded=1;whiteSpace=wrap;html=1;fillColor=#dae8fc;strokeColor=#6c8ebf;" parent="1" vertex="1">
                    <mxGeometry x="-890" y="-550" width="80" height="70" as="geometry"/>
                </mxCell>
                <mxCell id="381" value="" style="endArrow=classic;startArrow=classic;html=1;strokeColor=#000000;" parent="1" edge="1">
                    <mxGeometry width="50" height="50" relative="1" as="geometry">
                        <mxPoint x="-810" y="-515.29" as="sourcePoint"/>
                        <mxPoint x="-730" y="-515.29" as="targetPoint"/>
                    </mxGeometry>
                </mxCell>
                <mxCell id="383" value="DDR&lt;br&gt;Controller" style="rounded=1;whiteSpace=wrap;html=1;fillColor=#dae8fc;strokeColor=#6c8ebf;" parent="1" vertex="1">
                    <mxGeometry x="-590" y="-570" width="80" height="70" as="geometry"/>
                </mxCell>
                <mxCell id="384" value="" style="rounded=0;whiteSpace=wrap;html=1;fillColor=#ffe6cc;strokeColor=#d79b00;" parent="1" vertex="1">
                    <mxGeometry x="-580" y="-470" width="60" height="260" as="geometry"/>
                </mxCell>
                <mxCell id="385" value="peripheral&lt;br&gt;wb&lt;br&gt;intercon" style="text;html=1;align=center;verticalAlign=middle;resizable=0;points=[];autosize=1;strokeColor=none;" parent="1" vertex="1">
                    <mxGeometry x="-585" y="-470" width="70" height="50" as="geometry"/>
                </mxCell>
                <mxCell id="387" value="" style="endArrow=classic;startArrow=classic;html=1;strokeColor=#000000;" parent="1" edge="1">
                    <mxGeometry width="50" height="50" relative="1" as="geometry">
                        <mxPoint x="-670" y="-535.1700000000001" as="sourcePoint"/>
                        <mxPoint x="-590" y="-534.8299999999999" as="targetPoint"/>
                    </mxGeometry>
                </mxCell>
                <mxCell id="388" value="" style="endArrow=classic;startArrow=classic;html=1;strokeColor=#000000;" parent="1" edge="1">
                    <mxGeometry width="50" height="50" relative="1" as="geometry">
                        <mxPoint x="-510" y="-535.2400000000002" as="sourcePoint"/>
                        <mxPoint x="-430" y="-534.9000000000001" as="targetPoint"/>
                    </mxGeometry>
                </mxCell>
                <mxCell id="390" value="off-chip DDR&lt;br&gt;memory" style="rounded=1;whiteSpace=wrap;html=1;fillColor=#f8cecc;strokeColor=#b85450;" parent="1" vertex="1">
                    <mxGeometry x="-430" y="-570" width="120" height="70" as="geometry"/>
                </mxCell>
                <mxCell id="391" value="" style="endArrow=classic;startArrow=classic;html=1;strokeColor=#000000;" parent="1" edge="1">
                    <mxGeometry width="50" height="50" relative="1" as="geometry">
                        <mxPoint x="-670" y="-460.00000000000045" as="sourcePoint"/>
                        <mxPoint x="-580" y="-350" as="targetPoint"/>
                        <Array as="points">
                            <mxPoint x="-630" y="-460"/>
                            <mxPoint x="-630" y="-350"/>
                        </Array>
                    </mxGeometry>
                </mxCell>
                <mxCell id="392" value="" style="endArrow=classic;startArrow=classic;html=1;strokeColor=#000000;" parent="1" edge="1">
                    <mxGeometry width="50" height="50" relative="1" as="geometry">
                        <mxPoint x="-520" y="-440" as="sourcePoint"/>
                        <mxPoint x="-430" y="-440" as="targetPoint"/>
                    </mxGeometry>
                </mxCell>
                <mxCell id="393" value="UART" style="rounded=1;whiteSpace=wrap;html=1;fillColor=#dae8fc;strokeColor=#6c8ebf;" parent="1" vertex="1">
                    <mxGeometry x="-430" y="-460" width="80" height="40" as="geometry"/>
                </mxCell>
                <mxCell id="394" value="" style="endArrow=classic;startArrow=classic;html=1;strokeColor=#000000;" parent="1" edge="1">
                    <mxGeometry width="50" height="50" relative="1" as="geometry">
                        <mxPoint x="-520" y="-390" as="sourcePoint"/>
                        <mxPoint x="-430" y="-390" as="targetPoint"/>
                    </mxGeometry>
                </mxCell>
                <mxCell id="395" value="SPI" style="rounded=1;whiteSpace=wrap;html=1;fillColor=#dae8fc;strokeColor=#6c8ebf;" parent="1" vertex="1">
                    <mxGeometry x="-430" y="-410" width="80" height="40" as="geometry"/>
                </mxCell>
                <mxCell id="396" value="" style="endArrow=classic;startArrow=classic;html=1;strokeColor=#000000;" parent="1" edge="1">
                    <mxGeometry width="50" height="50" relative="1" as="geometry">
                        <mxPoint x="-520" y="-340" as="sourcePoint"/>
                        <mxPoint x="-430" y="-340" as="targetPoint"/>
                    </mxGeometry>
                </mxCell>
                <mxCell id="397" value="I2C" style="rounded=1;whiteSpace=wrap;html=1;fillColor=#dae8fc;strokeColor=#6c8ebf;" parent="1" vertex="1">
                    <mxGeometry x="-430" y="-360" width="80" height="40" as="geometry"/>
                </mxCell>
                <mxCell id="398" value="" style="endArrow=classic;startArrow=classic;html=1;strokeColor=#000000;" parent="1" edge="1">
                    <mxGeometry width="50" height="50" relative="1" as="geometry">
                        <mxPoint x="-520" y="-290" as="sourcePoint"/>
                        <mxPoint x="-430" y="-290" as="targetPoint"/>
                    </mxGeometry>
                </mxCell>
                <mxCell id="399" value="GPIO" style="rounded=1;whiteSpace=wrap;html=1;fillColor=#dae8fc;strokeColor=#6c8ebf;" parent="1" vertex="1">
                    <mxGeometry x="-430" y="-310" width="80" height="40" as="geometry"/>
                </mxCell>
                <mxCell id="400" value="" style="endArrow=classic;startArrow=classic;html=1;strokeColor=#000000;" parent="1" edge="1">
                    <mxGeometry width="50" height="50" relative="1" as="geometry">
                        <mxPoint x="-520" y="-240" as="sourcePoint"/>
                        <mxPoint x="-430" y="-240" as="targetPoint"/>
                    </mxGeometry>
                </mxCell>
                <mxCell id="401" value="Timer" style="rounded=1;whiteSpace=wrap;html=1;fillColor=#dae8fc;strokeColor=#6c8ebf;" parent="1" vertex="1">
                    <mxGeometry x="-430" y="-260" width="80" height="40" as="geometry"/>
                </mxCell>
                <mxCell id="403" value="PLL&lt;br&gt;Clock&lt;br&gt;Driver" style="rounded=0;whiteSpace=wrap;html=1;fillColor=#ffe6cc;strokeColor=#d79b00;" parent="1" vertex="1">
                    <mxGeometry x="265" y="-600" width="70" height="60" as="geometry"/>
                </mxCell>
                <mxCell id="404" value="off-chip&lt;br&gt;clock" style="rounded=1;whiteSpace=wrap;html=1;fillColor=#f8cecc;strokeColor=#b85450;" parent="1" vertex="1">
                    <mxGeometry x="155" y="-600" width="70" height="60" as="geometry"/>
                </mxCell>
                <mxCell id="405" value="" style="endArrow=classic;html=1;strokeColor=#000000;" parent="1" edge="1">
                    <mxGeometry width="50" height="50" relative="1" as="geometry">
                        <mxPoint x="225" y="-570.24" as="sourcePoint"/>
                        <mxPoint x="265" y="-570.24" as="targetPoint"/>
                    </mxGeometry>
                </mxCell>
                <mxCell id="406" value="" style="endArrow=classic;html=1;strokeColor=#000000;" parent="1" edge="1">
                    <mxGeometry width="50" height="50" relative="1" as="geometry">
                        <mxPoint x="335" y="-570.2399999999998" as="sourcePoint"/>
                        <mxPoint x="375" y="-570.2399999999998" as="targetPoint"/>
                    </mxGeometry>
                </mxCell>
                <mxCell id="407" value="" style="endArrow=classic;html=1;strokeColor=#6c8ebf;fillColor=#dae8fc;" parent="1" edge="1">
                    <mxGeometry width="50" height="50" relative="1" as="geometry">
                        <mxPoint x="400" y="132" as="sourcePoint"/>
                        <mxPoint x="510" y="132" as="targetPoint"/>
                    </mxGeometry>
                </mxCell>
                <mxCell id="408" value="control signals" style="text;html=1;align=center;verticalAlign=middle;resizable=0;points=[];autosize=1;strokeColor=none;" parent="1" vertex="1">
                    <mxGeometry x="463.63" y="188" width="90" height="20" as="geometry"/>
                </mxCell>
                <mxCell id="409" value="&lt;span style=&quot;color: rgb(0 , 0 , 0) ; font-family: &amp;#34;helvetica&amp;#34; ; font-size: 12px ; font-style: normal ; font-weight: 400 ; letter-spacing: normal ; text-align: center ; text-indent: 0px ; text-transform: none ; word-spacing: 0px ; background-color: rgb(248 , 249 , 250) ; display: inline ; float: none&quot;&gt;ex.control signals&lt;/span&gt;" style="text;whiteSpace=wrap;html=1;" parent="1" vertex="1">
                    <mxGeometry x="742" y="195" width="140" height="30" as="geometry"/>
                </mxCell>
                <mxCell id="410" value="" style="endArrow=classic;html=1;fillColor=#dae8fc;strokeColor=#6c8ebf;strokeWidth=2;" parent="1" edge="1">
                    <mxGeometry width="50" height="50" relative="1" as="geometry">
                        <mxPoint x="670" y="209.71000000000004" as="sourcePoint"/>
                        <mxPoint x="740" y="210" as="targetPoint"/>
                    </mxGeometry>
                </mxCell>
                <mxCell id="411" value="" style="endArrow=classic;html=1;" parent="1" edge="1">
                    <mxGeometry width="50" height="50" relative="1" as="geometry">
                        <mxPoint x="-755" y="1287" as="sourcePoint"/>
                        <mxPoint x="-680" y="1286.88" as="targetPoint"/>
                    </mxGeometry>
                </mxCell>
                <mxCell id="412" value="" style="endArrow=none;html=1;" parent="1" edge="1">
                    <mxGeometry width="50" height="50" relative="1" as="geometry">
                        <mxPoint x="-722" y="1292" as="sourcePoint"/>
                        <mxPoint x="-712" y="1282" as="targetPoint"/>
                    </mxGeometry>
                </mxCell>
                <mxCell id="413" value="3" style="text;html=1;align=center;verticalAlign=middle;resizable=0;points=[];autosize=1;strokeColor=none;" parent="1" vertex="1">
                    <mxGeometry x="-720" y="1282" width="20" height="20" as="geometry"/>
                </mxCell>
                <mxCell id="415" value="" style="rounded=0;whiteSpace=wrap;html=1;fillColor=#ffe6cc;strokeColor=#d79b00;" parent="1" vertex="1">
                    <mxGeometry x="2110" y="12" width="80" height="80" as="geometry"/>
                </mxCell>
                <mxCell id="414" value="Integer&lt;br&gt;Multiplier" style="text;html=1;align=center;verticalAlign=middle;resizable=0;points=[];autosize=1;strokeColor=none;" parent="1" vertex="1">
                    <mxGeometry x="2120" y="22" width="60" height="30" as="geometry"/>
                </mxCell>
                <mxCell id="416" value="" style="rounded=0;whiteSpace=wrap;html=1;fillColor=#ffe6cc;strokeColor=#d79b00;" parent="1" vertex="1">
                    <mxGeometry x="2110" y="116" width="80" height="80" as="geometry"/>
                </mxCell>
                <mxCell id="417" value="Integer&lt;br&gt;Divider" style="text;html=1;align=center;verticalAlign=middle;resizable=0;points=[];autosize=1;strokeColor=none;" parent="1" vertex="1">
                    <mxGeometry x="2125" y="126" width="50" height="30" as="geometry"/>
                </mxCell>
                <mxCell id="418" value="" style="rounded=0;whiteSpace=wrap;html=1;fillColor=#ffe6cc;strokeColor=#d79b00;" parent="1" vertex="1">
                    <mxGeometry x="2110" y="216" width="80" height="80" as="geometry"/>
                </mxCell>
                <mxCell id="419" value="FPU" style="text;html=1;align=center;verticalAlign=middle;resizable=0;points=[];autosize=1;strokeColor=none;" parent="1" vertex="1">
                    <mxGeometry x="2130" y="231" width="40" height="20" as="geometry"/>
                </mxCell>
                <mxCell id="420" value="" style="rounded=0;whiteSpace=wrap;html=1;fillColor=#ffe6cc;strokeColor=#d79b00;dashed=1;" parent="1" vertex="1">
                    <mxGeometry x="475" y="750" width="80" height="80" as="geometry"/>
                </mxCell>
                <mxCell id="421" value="CSR" style="text;html=1;align=center;verticalAlign=middle;resizable=0;points=[];autosize=1;strokeColor=none;" parent="1" vertex="1">
                    <mxGeometry x="495" y="765" width="40" height="20" as="geometry"/>
                </mxCell>
                <mxCell id="423" value="&lt;b&gt;i-cache&lt;/b&gt;" style="text;html=1;align=center;verticalAlign=middle;resizable=0;points=[];autosize=1;strokeColor=none;" parent="1" vertex="1">
                    <mxGeometry x="-625" y="1760" width="60" height="20" as="geometry"/>
                </mxCell>
                <mxCell id="424" value="&lt;b&gt;d-cache&lt;/b&gt;" style="text;html=1;align=center;verticalAlign=middle;resizable=0;points=[];autosize=1;strokeColor=none;" parent="1" vertex="1">
                    <mxGeometry x="567" y="1760" width="60" height="20" as="geometry"/>
                </mxCell>
                <mxCell id="425" value="" style="endArrow=classic;startArrow=classic;html=1;strokeColor=#000000;" parent="1" edge="1">
                    <mxGeometry width="50" height="50" relative="1" as="geometry">
                        <mxPoint x="-960" y="440" as="sourcePoint"/>
                        <mxPoint x="-580" y="411" as="targetPoint"/>
                        <Array as="points">
                            <mxPoint x="-580" y="440"/>
                        </Array>
                    </mxGeometry>
                </mxCell>
                <mxCell id="426" value="wishbone" style="text;html=1;align=center;verticalAlign=middle;resizable=0;points=[];autosize=1;strokeColor=none;" parent="1" vertex="1">
                    <mxGeometry x="-1027" y="431" width="70" height="20" as="geometry"/>
                </mxCell>
                <mxCell id="427" value="" style="endArrow=classic;startArrow=classic;html=1;strokeColor=#000000;" parent="1" edge="1">
                    <mxGeometry width="50" height="50" relative="1" as="geometry">
                        <mxPoint x="-760" y="1350" as="sourcePoint"/>
                        <mxPoint x="-615" y="1310" as="targetPoint"/>
                        <Array as="points">
                            <mxPoint x="-615" y="1350"/>
                        </Array>
                    </mxGeometry>
                </mxCell>
                <mxCell id="428" value="wishbone" style="text;html=1;align=center;verticalAlign=middle;resizable=0;points=[];autosize=1;strokeColor=none;" parent="1" vertex="1">
                    <mxGeometry x="-835" y="1340" width="70" height="20" as="geometry"/>
                </mxCell>
                <mxCell id="429" value="" style="rounded=0;whiteSpace=wrap;html=1;fillColor=#ffe6cc;strokeColor=#d79b00;dashed=1;" parent="1" vertex="1">
                    <mxGeometry x="325" y="762" width="80" height="100" as="geometry"/>
                </mxCell>
                <mxCell id="430" value="FP Regfile" style="text;html=1;align=center;verticalAlign=middle;resizable=0;points=[];autosize=1;strokeColor=none;dashed=1;" parent="1" vertex="1">
                    <mxGeometry x="330" y="742" width="70" height="20" as="geometry"/>
                </mxCell>
                <mxCell id="431" value="rs1" style="text;html=1;align=left;verticalAlign=middle;resizable=0;points=[];autosize=1;strokeColor=none;dashed=1;" parent="1" vertex="1">
                    <mxGeometry x="328" y="802" width="30" height="20" as="geometry"/>
                </mxCell>
                <mxCell id="432" value="rs2" style="text;html=1;align=left;verticalAlign=middle;resizable=0;points=[];autosize=1;strokeColor=none;dashed=1;" parent="1" vertex="1">
                    <mxGeometry x="328" y="822" width="30" height="20" as="geometry"/>
                </mxCell>
                <mxCell id="433" value="rd" style="text;html=1;align=left;verticalAlign=middle;resizable=0;points=[];autosize=1;strokeColor=none;dashed=1;" parent="1" vertex="1">
                    <mxGeometry x="328" y="782" width="30" height="20" as="geometry"/>
                </mxCell>
                <mxCell id="434" value="wr_dat" style="text;html=1;align=left;verticalAlign=middle;resizable=0;points=[];autosize=1;strokeColor=none;dashed=1;" parent="1" vertex="1">
                    <mxGeometry x="328" y="842" width="50" height="20" as="geometry"/>
                </mxCell>
                <mxCell id="435" value="reg_wr" style="text;html=1;align=left;verticalAlign=middle;resizable=0;points=[];autosize=1;strokeColor=none;dashed=1;" parent="1" vertex="1">
                    <mxGeometry x="328" y="762" width="50" height="20" as="geometry"/>
                </mxCell>
                <mxCell id="436" value="[rs1]" style="text;html=1;align=right;verticalAlign=middle;resizable=0;points=[];autosize=1;strokeColor=none;dashed=1;" parent="1" vertex="1">
                    <mxGeometry x="362" y="790" width="40" height="20" as="geometry"/>
                </mxCell>
                <mxCell id="437" value="[rs2]" style="text;html=1;align=right;verticalAlign=middle;resizable=0;points=[];autosize=1;strokeColor=none;dashed=1;" parent="1" vertex="1">
                    <mxGeometry x="362" y="810" width="40" height="20" as="geometry"/>
                </mxCell>
                <mxCell id="438" value="&lt;b&gt;Branch Prediction&lt;/b&gt;" style="text;html=1;align=center;verticalAlign=middle;resizable=0;points=[];autosize=1;strokeColor=none;" parent="1" vertex="1">
                    <mxGeometry x="1660" y="940" width="120" height="20" as="geometry"/>
                </mxCell>
                <mxCell id="439" value="&lt;b&gt;Forwarding&lt;/b&gt;" style="text;html=1;align=center;verticalAlign=middle;resizable=0;points=[];autosize=1;strokeColor=none;" parent="1" vertex="1">
                    <mxGeometry x="1620" y="1760" width="80" height="20" as="geometry"/>
                </mxCell>
                <mxCell id="441" value="mem.rs2_dat" style="text;html=1;align=center;verticalAlign=middle;resizable=0;points=[];autosize=1;strokeColor=none;" parent="1" vertex="1">
                    <mxGeometry x="1952" y="416" width="90" height="20" as="geometry"/>
                </mxCell>
                <mxCell id="442" value="" style="rounded=0;whiteSpace=wrap;html=1;fillColor=#ffe6cc;strokeColor=#d79b00;" parent="1" vertex="1">
                    <mxGeometry x="1760" y="200" width="80" height="20" as="geometry"/>
                </mxCell>
                <mxCell id="443" value="SCAUSE" style="text;html=1;align=center;verticalAlign=middle;resizable=0;points=[];autosize=1;strokeColor=none;" parent="1" vertex="1">
                    <mxGeometry x="1770" y="200" width="60" height="20" as="geometry"/>
                </mxCell>
                <mxCell id="445" value="" style="rounded=0;whiteSpace=wrap;html=1;fillColor=#ffe6cc;strokeColor=#d79b00;" parent="1" vertex="1">
                    <mxGeometry x="1760" y="231" width="80" height="20" as="geometry"/>
                </mxCell>
                <mxCell id="446" value="SPEC" style="text;html=1;align=center;verticalAlign=middle;resizable=0;points=[];autosize=1;strokeColor=none;" parent="1" vertex="1">
                    <mxGeometry x="1775" y="231" width="50" height="20" as="geometry"/>
                </mxCell>
                <mxCell id="447" value="" style="endArrow=classic;html=1;" parent="1" edge="1">
                    <mxGeometry width="50" height="50" relative="1" as="geometry">
                        <mxPoint x="-961" y="396" as="sourcePoint"/>
                        <mxPoint x="-882" y="395.79999999999995" as="targetPoint"/>
                    </mxGeometry>
                </mxCell>
                <mxCell id="448" value="exception_adr" style="text;html=1;align=right;verticalAlign=middle;resizable=0;points=[];autosize=1;strokeColor=none;" parent="1" vertex="1">
                    <mxGeometry x="-1052" y="385.75" width="90" height="20" as="geometry"/>
                </mxCell>
                <mxCell id="450" value="" style="shape=trapezoid;perimeter=trapezoidPerimeter;whiteSpace=wrap;html=1;fixedSize=1;rotation=90;size=10.5;" parent="1" vertex="1">
                    <mxGeometry x="491.88" y="140.88" width="61.75" height="24" as="geometry"/>
                </mxCell>
                <mxCell id="451" value="0&lt;br&gt;&lt;br&gt;1" style="text;html=1;align=center;verticalAlign=middle;resizable=0;points=[];autosize=1;strokeColor=none;" parent="1" vertex="1">
                    <mxGeometry x="509.5" y="128" width="20" height="50" as="geometry"/>
                </mxCell>
                <mxCell id="452" value="" style="endArrow=classic;html=1;strokeColor=#6c8ebf;fillColor=#dae8fc;" parent="1" edge="1">
                    <mxGeometry width="50" height="50" relative="1" as="geometry">
                        <mxPoint x="400" y="145.76" as="sourcePoint"/>
                        <mxPoint x="510" y="146" as="targetPoint"/>
                    </mxGeometry>
                </mxCell>
                <mxCell id="453" value="" style="endArrow=classic;html=1;strokeColor=#6c8ebf;fillColor=#dae8fc;" parent="1" edge="1">
                    <mxGeometry width="50" height="50" relative="1" as="geometry">
                        <mxPoint x="480" y="165" as="sourcePoint"/>
                        <mxPoint x="511" y="164.84" as="targetPoint"/>
                    </mxGeometry>
                </mxCell>
                <mxCell id="455" value="" style="endArrow=classic;html=1;strokeColor=#6c8ebf;fillColor=#dae8fc;" parent="1" edge="1">
                    <mxGeometry width="50" height="50" relative="1" as="geometry">
                        <mxPoint x="480" y="178" as="sourcePoint"/>
                        <mxPoint x="511" y="177.95999999999992" as="targetPoint"/>
                    </mxGeometry>
                </mxCell>
                <mxCell id="456" value="0" style="text;html=1;align=center;verticalAlign=middle;resizable=0;points=[];autosize=1;strokeColor=none;" parent="1" vertex="1">
                    <mxGeometry x="460" y="154" width="20" height="20" as="geometry"/>
                </mxCell>
                <mxCell id="457" value="0" style="text;html=1;align=center;verticalAlign=middle;resizable=0;points=[];autosize=1;strokeColor=none;" parent="1" vertex="1">
                    <mxGeometry x="460" y="168" width="20" height="20" as="geometry"/>
                </mxCell>
                <mxCell id="458" value="" style="endArrow=classic;html=1;strokeColor=#6c8ebf;fillColor=#dae8fc;entryX=0;entryY=0.194;entryDx=0;entryDy=0;entryPerimeter=0;strokeWidth=2;" parent="1" target="120" edge="1">
                    <mxGeometry width="50" height="50" relative="1" as="geometry">
                        <mxPoint x="400" y="210" as="sourcePoint"/>
                        <mxPoint x="630" y="170" as="targetPoint"/>
                        <Array as="points">
                            <mxPoint x="600" y="210"/>
                        </Array>
                    </mxGeometry>
                </mxCell>
                <mxCell id="459" value="" style="endArrow=none;html=1;strokeColor=#6c8ebf;fillColor=#dae8fc;exitX=0.518;exitY=-0.011;exitDx=0;exitDy=0;exitPerimeter=0;" parent="1" source="450" edge="1">
                    <mxGeometry width="50" height="50" relative="1" as="geometry">
                        <mxPoint x="536" y="154" as="sourcePoint"/>
                        <mxPoint x="620" y="210" as="targetPoint"/>
                        <Array as="points">
                            <mxPoint x="570" y="154"/>
                            <mxPoint x="570" y="210"/>
                        </Array>
                    </mxGeometry>
                </mxCell>
                <mxCell id="460" value="" style="endArrow=classic;html=1;strokeColor=#000000;strokeWidth=1;" parent="1" edge="1">
                    <mxGeometry width="50" height="50" relative="1" as="geometry">
                        <mxPoint x="523.71" y="78" as="sourcePoint"/>
                        <mxPoint x="523.71" y="128" as="targetPoint"/>
                    </mxGeometry>
                </mxCell>
                <mxCell id="461" value="hz.stall_id" style="text;html=1;align=center;verticalAlign=middle;resizable=0;points=[];autosize=1;strokeColor=none;" parent="1" vertex="1">
                    <mxGeometry x="487" y="52" width="70" height="20" as="geometry"/>
                </mxCell>
                <mxCell id="464" value="" style="shape=trapezoid;perimeter=trapezoidPerimeter;whiteSpace=wrap;html=1;fixedSize=1;rotation=90;size=10.5;" parent="1" vertex="1">
                    <mxGeometry x="1453.94" y="291.13" width="60" height="24" as="geometry"/>
                </mxCell>
                <mxCell id="465" value="0&lt;br&gt;1&lt;br&gt;2" style="text;html=1;align=center;verticalAlign=middle;resizable=0;points=[];autosize=1;strokeColor=none;" parent="1" vertex="1">
                    <mxGeometry x="1469.81" y="278" width="20" height="50" as="geometry"/>
                </mxCell>
                <mxCell id="466" value="" style="endArrow=classic;html=1;" parent="1" edge="1">
                    <mxGeometry width="50" height="50" relative="1" as="geometry">
                        <mxPoint x="1433.81" y="303" as="sourcePoint"/>
                        <mxPoint x="1471.81" y="303.42" as="targetPoint"/>
                    </mxGeometry>
                </mxCell>
                <mxCell id="469" value="" style="endArrow=classic;html=1;" parent="1" edge="1">
                    <mxGeometry width="50" height="50" relative="1" as="geometry">
                        <mxPoint x="1433.81" y="317" as="sourcePoint"/>
                        <mxPoint x="1471.81" y="317.00000000000006" as="targetPoint"/>
                    </mxGeometry>
                </mxCell>
                <mxCell id="473" value="fw.sela" style="text;html=1;align=center;verticalAlign=middle;resizable=0;points=[];autosize=1;strokeColor=none;" parent="1" vertex="1">
                    <mxGeometry x="1387.8200000000002" y="251" width="50" height="20" as="geometry"/>
                </mxCell>
                <mxCell id="500" value="" style="endArrow=classic;html=1;exitX=0.5;exitY=0;exitDx=0;exitDy=0;entryX=0.076;entryY=0.225;entryDx=0;entryDy=0;entryPerimeter=0;" parent="1" source="464" target="503" edge="1">
                    <mxGeometry width="50" height="50" relative="1" as="geometry">
                        <mxPoint x="1477.0700000000002" y="341.25" as="sourcePoint"/>
                        <mxPoint x="1545.19" y="341.25" as="targetPoint"/>
                        <Array as="points">
                            <mxPoint x="1523.81" y="303"/>
                            <mxPoint x="1523.81" y="341"/>
                        </Array>
                    </mxGeometry>
                </mxCell>
                <mxCell id="501" value="ex.pc&lt;br&gt;0" style="text;html=1;align=right;verticalAlign=middle;resizable=0;points=[];autosize=1;strokeColor=none;" parent="1" vertex="1">
                    <mxGeometry x="1387.8200000000002" y="347" width="40" height="30" as="geometry"/>
                </mxCell>
                <mxCell id="502" value="" style="shape=trapezoid;perimeter=trapezoidPerimeter;whiteSpace=wrap;html=1;fixedSize=1;rotation=90;size=10.5;" parent="1" vertex="1">
                    <mxGeometry x="1537.2000000000003" y="343.13" width="60" height="24" as="geometry"/>
                </mxCell>
                <mxCell id="503" value="0&lt;br&gt;1&lt;br&gt;2" style="text;html=1;align=center;verticalAlign=middle;resizable=0;points=[];autosize=1;strokeColor=none;" parent="1" vertex="1">
                    <mxGeometry x="1553.0700000000002" y="330" width="20" height="50" as="geometry"/>
                </mxCell>
                <mxCell id="504" value="" style="endArrow=classic;html=1;" parent="1" edge="1">
                    <mxGeometry width="50" height="50" relative="1" as="geometry">
                        <mxPoint x="1447.81" y="355" as="sourcePoint"/>
                        <mxPoint x="1554.81" y="355" as="targetPoint"/>
                    </mxGeometry>
                </mxCell>
                <mxCell id="505" value="" style="endArrow=classic;html=1;" parent="1" edge="1">
                    <mxGeometry width="50" height="50" relative="1" as="geometry">
                        <mxPoint x="1447.81" y="369" as="sourcePoint"/>
                        <mxPoint x="1555.0700000000002" y="369" as="targetPoint"/>
                    </mxGeometry>
                </mxCell>
                <mxCell id="506" value="" style="endArrow=classic;html=1;strokeColor=#d79b00;strokeWidth=1;fillColor=#ffe6cc;" parent="1" edge="1">
                    <mxGeometry width="50" height="50" relative="1" as="geometry">
                        <mxPoint x="1437.81" y="263" as="sourcePoint"/>
                        <mxPoint x="1483.8300000000002" y="278" as="targetPoint"/>
                        <Array as="points">
                            <mxPoint x="1483.81" y="263"/>
                        </Array>
                    </mxGeometry>
                </mxCell>
                <mxCell id="507" value="" style="endArrow=classic;html=1;strokeColor=#6c8ebf;strokeWidth=1;fillColor=#dae8fc;" parent="1" edge="1">
                    <mxGeometry width="50" height="50" relative="1" as="geometry">
                        <mxPoint x="1566.9600000000003" y="304" as="sourcePoint"/>
                        <mxPoint x="1567.0900000000004" y="330" as="targetPoint"/>
                    </mxGeometry>
                </mxCell>
                <mxCell id="508" value="" style="endArrow=classic;html=1;" parent="1" edge="1">
                    <mxGeometry width="50" height="50" relative="1" as="geometry">
                        <mxPoint x="1433.81" y="424" as="sourcePoint"/>
                        <mxPoint x="1471.9299999999998" y="424.25" as="targetPoint"/>
                    </mxGeometry>
                </mxCell>
                <mxCell id="509" value="ex.rs2_dat&lt;br&gt;wb.rs2_dat&lt;br&gt;mem.rs2_dat" style="text;html=1;align=right;verticalAlign=middle;resizable=0;points=[];autosize=1;strokeColor=none;" parent="1" vertex="1">
                    <mxGeometry x="1337.81" y="412" width="90" height="50" as="geometry"/>
                </mxCell>
                <mxCell id="510" value="ex.alusrcb" style="text;html=1;align=center;verticalAlign=middle;resizable=0;points=[];autosize=1;strokeColor=none;" parent="1" vertex="1">
                    <mxGeometry x="1532.2" y="418" width="70" height="20" as="geometry"/>
                </mxCell>
                <mxCell id="511" value="" style="shape=trapezoid;perimeter=trapezoidPerimeter;whiteSpace=wrap;html=1;fixedSize=1;rotation=90;size=10.5;" parent="1" vertex="1">
                    <mxGeometry x="1453.94" y="426.13" width="60" height="24" as="geometry"/>
                </mxCell>
                <mxCell id="512" value="0&lt;br&gt;1&lt;br&gt;2" style="text;html=1;align=center;verticalAlign=middle;resizable=0;points=[];autosize=1;strokeColor=none;" parent="1" vertex="1">
                    <mxGeometry x="1469.81" y="413" width="20" height="50" as="geometry"/>
                </mxCell>
                <mxCell id="513" value="" style="endArrow=classic;html=1;" parent="1" edge="1">
                    <mxGeometry width="50" height="50" relative="1" as="geometry">
                        <mxPoint x="1433.81" y="438" as="sourcePoint"/>
                        <mxPoint x="1471.81" y="438.4200000000001" as="targetPoint"/>
                    </mxGeometry>
                </mxCell>
                <mxCell id="514" value="" style="endArrow=classic;html=1;" parent="1" edge="1">
                    <mxGeometry width="50" height="50" relative="1" as="geometry">
                        <mxPoint x="1433.81" y="452" as="sourcePoint"/>
                        <mxPoint x="1471.81" y="452" as="targetPoint"/>
                    </mxGeometry>
                </mxCell>
                <mxCell id="515" value="fw.selb" style="text;html=1;align=center;verticalAlign=middle;resizable=0;points=[];autosize=1;strokeColor=none;" parent="1" vertex="1">
                    <mxGeometry x="1387.8200000000002" y="381" width="50" height="20" as="geometry"/>
                </mxCell>
                <mxCell id="516" value="" style="endArrow=classic;html=1;exitX=0.5;exitY=0;exitDx=0;exitDy=0;entryX=0.076;entryY=0.225;entryDx=0;entryDy=0;entryPerimeter=0;" parent="1" source="511" target="519" edge="1">
                    <mxGeometry width="50" height="50" relative="1" as="geometry">
                        <mxPoint x="1477.0700000000002" y="476.25" as="sourcePoint"/>
                        <mxPoint x="1545.19" y="476.25" as="targetPoint"/>
                        <Array as="points">
                            <mxPoint x="1523.81" y="438"/>
                            <mxPoint x="1523.81" y="476"/>
                        </Array>
                    </mxGeometry>
                </mxCell>
                <mxCell id="518" value="" style="shape=trapezoid;perimeter=trapezoidPerimeter;whiteSpace=wrap;html=1;fixedSize=1;rotation=90;size=10.5;" parent="1" vertex="1">
                    <mxGeometry x="1537.2000000000003" y="478.13" width="60" height="24" as="geometry"/>
                </mxCell>
                <mxCell id="519" value="0&lt;br&gt;&lt;br&gt;1" style="text;html=1;align=center;verticalAlign=middle;resizable=0;points=[];autosize=1;strokeColor=none;" parent="1" vertex="1">
                    <mxGeometry x="1553.0700000000002" y="465" width="20" height="50" as="geometry"/>
                </mxCell>
                <mxCell id="521" value="" style="endArrow=classic;html=1;" parent="1" edge="1">
                    <mxGeometry width="50" height="50" relative="1" as="geometry">
                        <mxPoint x="1437.81" y="504" as="sourcePoint"/>
                        <mxPoint x="1555.0700000000002" y="504" as="targetPoint"/>
                    </mxGeometry>
                </mxCell>
                <mxCell id="522" value="" style="endArrow=classic;html=1;strokeColor=#d79b00;strokeWidth=1;fillColor=#ffe6cc;" parent="1" edge="1">
                    <mxGeometry width="50" height="50" relative="1" as="geometry">
                        <mxPoint x="1437.81" y="393" as="sourcePoint"/>
                        <mxPoint x="1483.8300000000004" y="413" as="targetPoint"/>
                        <Array as="points">
                            <mxPoint x="1483.81" y="393"/>
                        </Array>
                    </mxGeometry>
                </mxCell>
                <mxCell id="523" value="" style="endArrow=classic;html=1;strokeColor=#6c8ebf;strokeWidth=1;fillColor=#dae8fc;" parent="1" edge="1">
                    <mxGeometry width="50" height="50" relative="1" as="geometry">
                        <mxPoint x="1566.9600000000005" y="439" as="sourcePoint"/>
                        <mxPoint x="1567.0900000000006" y="465" as="targetPoint"/>
                    </mxGeometry>
                </mxCell>
                <mxCell id="524" value="" style="endArrow=classic;html=1;strokeColor=#000000;strokeWidth=1;entryX=0;entryY=0.5;entryDx=0;entryDy=0;" parent="1" target="188" edge="1">
                    <mxGeometry width="50" height="50" relative="1" as="geometry">
                        <mxPoint x="1579" y="354.6" as="sourcePoint"/>
                        <mxPoint x="1629" y="354.6" as="targetPoint"/>
                        <Array as="points">
                            <mxPoint x="1610" y="355"/>
                            <mxPoint x="1610" y="371"/>
                        </Array>
                    </mxGeometry>
                </mxCell>
                <mxCell id="525" value="" style="endArrow=classic;html=1;strokeColor=#000000;strokeWidth=1;entryX=-0.006;entryY=0.838;entryDx=0;entryDy=0;entryPerimeter=0;" parent="1" target="188" edge="1">
                    <mxGeometry width="50" height="50" relative="1" as="geometry">
                        <mxPoint x="1579" y="489" as="sourcePoint"/>
                        <mxPoint x="1629" y="439" as="targetPoint"/>
                        <Array as="points">
                            <mxPoint x="1610" y="489"/>
                            <mxPoint x="1610" y="401"/>
                        </Array>
                    </mxGeometry>
                </mxCell>
                <mxCell id="526" value="0&lt;br&gt;&lt;br&gt;1" style="text;html=1;align=center;verticalAlign=middle;resizable=0;points=[];autosize=1;strokeColor=none;" parent="1" vertex="1">
                    <mxGeometry x="-980" y="4.8700000000000045" width="20" height="50" as="geometry"/>
                </mxCell>
                <mxCell id="527" value="" style="shape=trapezoid;perimeter=trapezoidPerimeter;whiteSpace=wrap;html=1;fixedSize=1;rotation=90;size=10.5;" parent="1" vertex="1">
                    <mxGeometry x="-995.8699999999999" y="18" width="60" height="24" as="geometry"/>
                </mxCell>
                <mxCell id="528" value="0&lt;br&gt;&lt;br&gt;1" style="text;html=1;align=center;verticalAlign=middle;resizable=0;points=[];autosize=1;strokeColor=none;" parent="1" vertex="1">
                    <mxGeometry x="-804.13" y="1250" width="20" height="50" as="geometry"/>
                </mxCell>
                <mxCell id="529" value="" style="shape=trapezoid;perimeter=trapezoidPerimeter;whiteSpace=wrap;html=1;fixedSize=1;rotation=90;size=10.5;" parent="1" vertex="1">
                    <mxGeometry x="-819.9999999999999" y="1261" width="60" height="24" as="geometry"/>
                </mxCell>
                <mxCell id="532" value="&lt;span style=&quot;text-align: right&quot;&gt;mem.&lt;/span&gt;rs2_dat" style="text;html=1;align=center;verticalAlign=middle;resizable=0;points=[];autosize=1;strokeColor=none;" parent="1" vertex="1">
                    <mxGeometry x="-890" y="1245" width="90" height="20" as="geometry"/>
                </mxCell>
                <mxCell id="533" value="&lt;span style=&quot;text-align: right&quot;&gt;wb.&lt;/span&gt;rs2_dat" style="text;html=1;align=center;verticalAlign=middle;resizable=0;points=[];autosize=1;strokeColor=none;" parent="1" vertex="1">
                    <mxGeometry x="-875" y="1275" width="70" height="20" as="geometry"/>
                </mxCell>
                <mxCell id="534" value="&lt;span style=&quot;color: rgba(0 , 0 , 0 , 0) ; font-family: monospace ; font-size: 0px&quot;&gt;%3CmxGraphModel%3E%3Croot%3E%3CmxCell%20id%3D%220%22%2F%3E%3CmxCell%20id%3D%221%22%20parent%3D%220%22%2F%3E%3CmxCell%20id%3D%222%22%20value%3D%22%26lt%3Bspan%20style%3D%26quot%3Btext-align%3A%20right%26quot%3B%26gt%3Bmem.%26lt%3B%2Fspan%26gt%3Brs2_dat%22%20style%3D%22text%3Bhtml%3D1%3Balign%3Dcenter%3BverticalAlign%3Dmiddle%3Bresizable%3D0%3Bpoints%3D%5B%5D%3Bautosize%3D1%3BstrokeColor%3Dnone%3B%22%20vertex%3D%221%22%20parent%3D%221%22%3E%3CmxGeometry%20x%3D%22-905%22%20y%3D%221246%22%20width%3D%2290%22%20height%3D%2220%22%20as%3D%22geometry%22%2F%3E%3C%2FmxCell%3E%3C%2Froot%3E%3C%2FmxGraphModel%3E&lt;/span&gt;&lt;span style=&quot;color: rgba(0 , 0 , 0 , 0) ; font-family: monospace ; font-size: 0px&quot;&gt;%3CmxGraphModel%3E%3Croot%3E%3CmxCell%20id%3D%220%22%2F%3E%3CmxCell%20id%3D%221%22%20parent%3D%220%22%2F%3E%3CmxCell%20id%3D%222%22%20value%3D%22%26lt%3Bspan%20style%3D%26quot%3Btext-align%3A%20right%26quot%3B%26gt%3Bmem.%26lt%3B%2Fspan%26gt%3Brs2_dat%22%20style%3D%22text%3Bhtml%3D1%3Balign%3Dcenter%3BverticalAlign%3Dmiddle%3Bresizable%3D0%3Bpoints%3D%5B%5D%3Bautosize%3D1%3BstrokeColor%3Dnone%3B%22%20vertex%3D%221%22%20parent%3D%221%22%3E%3CmxGeometry%20x%3D%22-905%22%20y%3D%221246%22%20width%3D%2290%22%20height%3D%2220%22%20as%3D%22geometry%22%2F%3E%3C%2FmxCell%3E%3C%2Froot%3E%3C%2FmxGraphModel%3E&lt;/span&gt;" style="text;html=1;align=center;verticalAlign=middle;resizable=0;points=[];autosize=1;strokeColor=none;" parent="1" vertex="1">
                    <mxGeometry x="-940" y="1320" width="20" height="20" as="geometry"/>
                </mxCell>
                <mxCell id="536" value="mem.instr(funct3)" style="text;html=1;align=center;verticalAlign=middle;resizable=0;points=[];autosize=1;strokeColor=none;rotation=-15;" parent="1" vertex="1">
                    <mxGeometry x="-849.13" y="1302" width="110" height="20" as="geometry"/>
                </mxCell>
                <mxCell id="537" value="" style="endArrow=classic;html=1;strokeColor=#000000;strokeWidth=1;entryX=0.876;entryY=-0.044;entryDx=0;entryDy=0;entryPerimeter=0;" parent="1" target="528" edge="1">
                    <mxGeometry width="50" height="50" relative="1" as="geometry">
                        <mxPoint x="-837" y="1233" as="sourcePoint"/>
                        <mxPoint x="-800" y="1233" as="targetPoint"/>
                    </mxGeometry>
                </mxCell>
                <mxCell id="538" value="fw.store" style="text;html=1;align=center;verticalAlign=middle;resizable=0;points=[];autosize=1;strokeColor=none;" parent="1" vertex="1">
                    <mxGeometry x="-890" y="1218" width="60" height="20" as="geometry"/>
                </mxCell>
                <mxCell id="539" value="&lt;font color=&quot;#c7ff45&quot;&gt;move the left shift&lt;br&gt;and add by 1 to&amp;nbsp;&lt;br&gt;the previous stage&amp;nbsp;&lt;/font&gt;" style="text;html=1;align=center;verticalAlign=middle;resizable=0;points=[];autosize=1;strokeColor=none;" parent="1" vertex="1">
                    <mxGeometry x="1387.82" y="556" width="120" height="50" as="geometry"/>
                </mxCell>
                <mxCell id="540" value="" style="endArrow=classic;html=1;" parent="1" edge="1">
                    <mxGeometry width="50" height="50" relative="1" as="geometry">
                        <mxPoint x="1734" y="144.88" as="sourcePoint"/>
                        <mxPoint x="1794" y="144.88" as="targetPoint"/>
                    </mxGeometry>
                </mxCell>
                <mxCell id="541" value="" style="rounded=0;whiteSpace=wrap;html=1;" parent="1" vertex="1">
                    <mxGeometry x="1794" y="70" width="80" height="90.88" as="geometry"/>
                </mxCell>
                <mxCell id="542" value="Branch" style="text;html=1;align=center;verticalAlign=middle;resizable=0;points=[];autosize=1;strokeColor=none;" parent="1" vertex="1">
                    <mxGeometry x="1809" y="46" width="50" height="20" as="geometry"/>
                </mxCell>
                <mxCell id="543" value="" style="endArrow=classic;html=1;" parent="1" edge="1">
                    <mxGeometry width="50" height="50" relative="1" as="geometry">
                        <mxPoint x="1734" y="130.88" as="sourcePoint"/>
                        <mxPoint x="1794" y="130.88" as="targetPoint"/>
                    </mxGeometry>
                </mxCell>
                <mxCell id="544" value="" style="endArrow=classic;html=1;" parent="1" edge="1">
                    <mxGeometry width="50" height="50" relative="1" as="geometry">
                        <mxPoint x="1874" y="124.88" as="sourcePoint"/>
                        <mxPoint x="1934.0000000000002" y="124.88" as="targetPoint"/>
                    </mxGeometry>
                </mxCell>
                <mxCell id="545" value="br_result" style="text;html=1;align=center;verticalAlign=middle;resizable=0;points=[];autosize=1;strokeColor=none;" parent="1" vertex="1">
                    <mxGeometry x="1931" y="114.38" width="60" height="20" as="geometry"/>
                </mxCell>
                <mxCell id="546" value="" style="endArrow=none;html=1;" parent="1" edge="1">
                    <mxGeometry width="50" height="50" relative="1" as="geometry">
                        <mxPoint x="1762.0000000000002" y="149.88" as="sourcePoint"/>
                        <mxPoint x="1772.0000000000002" y="139.88" as="targetPoint"/>
                    </mxGeometry>
                </mxCell>
                <mxCell id="547" value="14:12" style="text;html=1;align=center;verticalAlign=middle;resizable=0;points=[];autosize=1;strokeColor=none;" parent="1" vertex="1">
                    <mxGeometry x="1739" y="144.88" width="50" height="20" as="geometry"/>
                </mxCell>
                <mxCell id="548" value="" style="endArrow=classic;html=1;" parent="1" edge="1">
                    <mxGeometry width="50" height="50" relative="1" as="geometry">
                        <mxPoint x="1734" y="102.7600000000001" as="sourcePoint"/>
                        <mxPoint x="1794" y="102.7600000000001" as="targetPoint"/>
                    </mxGeometry>
                </mxCell>
                <mxCell id="549" value="" style="endArrow=classic;html=1;" parent="1" edge="1">
                    <mxGeometry width="50" height="50" relative="1" as="geometry">
                        <mxPoint x="1733.9999999999998" y="117.38" as="sourcePoint"/>
                        <mxPoint x="1793.9999999999998" y="117.38" as="targetPoint"/>
                    </mxGeometry>
                </mxCell>
                <mxCell id="550" value="exe.zero&lt;br&gt;exe.neg&lt;br&gt;exe.branch&lt;br&gt;exe.instr(FUNCT3)" style="text;html=1;align=right;verticalAlign=middle;resizable=0;points=[];autosize=1;strokeColor=none;" parent="1" vertex="1">
                    <mxGeometry x="1609" y="90.88" width="120" height="60" as="geometry"/>
                </mxCell>
                <mxCell id="551" value="jalr&lt;br&gt;zero&lt;br&gt;neg&lt;br&gt;branch&lt;br&gt;brop" style="text;html=1;align=left;verticalAlign=middle;resizable=0;points=[];autosize=1;strokeColor=none;" parent="1" vertex="1">
                    <mxGeometry x="1795" y="75.44" width="50" height="80" as="geometry"/>
                </mxCell>
                <mxCell id="552" value="cpu" style="rounded=1;whiteSpace=wrap;html=1;fillColor=#dae8fc;strokeColor=#6c8ebf;" vertex="1" parent="1">
                    <mxGeometry x="1280" y="-560" width="80" height="70" as="geometry"/>
                </mxCell>
                <mxCell id="553" value="" style="endArrow=none;startArrow=classic;html=1;strokeColor=#000000;entryX=0;entryY=0.5;entryDx=0;entryDy=0;exitX=1;exitY=0.25;exitDx=0;exitDy=0;endFill=0;" edge="1" parent="1" source="552" target="555">
                    <mxGeometry width="50" height="50" relative="1" as="geometry">
                        <mxPoint x="1360" y="-540" as="sourcePoint"/>
                        <mxPoint x="1430" y="-540" as="targetPoint"/>
                        <Array as="points">
                            <mxPoint x="1400" y="-542"/>
                            <mxPoint x="1400" y="-590"/>
                        </Array>
                    </mxGeometry>
                </mxCell>
                <mxCell id="554" value="" style="endArrow=classic;startArrow=classic;html=1;strokeColor=#000000;entryX=0;entryY=0.5;entryDx=0;entryDy=0;exitX=1;exitY=0.75;exitDx=0;exitDy=0;" edge="1" parent="1" source="552" target="556">
                    <mxGeometry width="50" height="50" relative="1" as="geometry">
                        <mxPoint x="1360" y="-510" as="sourcePoint"/>
                        <mxPoint x="1430" y="-510" as="targetPoint"/>
                        <Array as="points">
                            <mxPoint x="1400" y="-507"/>
                            <mxPoint x="1400" y="-460"/>
                        </Array>
                    </mxGeometry>
                </mxCell>
                <mxCell id="555" value="" style="rounded=0;whiteSpace=wrap;html=1;fillColor=#ffe6cc;strokeColor=#d79b00;" vertex="1" parent="1">
                    <mxGeometry x="1440" y="-650" width="40" height="120" as="geometry"/>
                </mxCell>
                <mxCell id="556" value="" style="rounded=0;whiteSpace=wrap;html=1;fillColor=#ffe6cc;strokeColor=#d79b00;" vertex="1" parent="1">
                    <mxGeometry x="1440" y="-520" width="40" height="120" as="geometry"/>
                </mxCell>
                <mxCell id="557" value="icache" style="rounded=1;whiteSpace=wrap;html=1;fillColor=#dae8fc;strokeColor=#6c8ebf;" vertex="1" parent="1">
                    <mxGeometry x="1520" y="-650" width="80" height="60" as="geometry"/>
                </mxCell>
                <mxCell id="558" value="dcache" style="rounded=1;whiteSpace=wrap;html=1;fillColor=#dae8fc;strokeColor=#6c8ebf;" vertex="1" parent="1">
                    <mxGeometry x="1520" y="-520" width="80" height="60" as="geometry"/>
                </mxCell>
                <mxCell id="559" value="" style="endArrow=none;html=1;exitX=1;exitY=0.25;exitDx=0;exitDy=0;entryX=0;entryY=0.5;entryDx=0;entryDy=0;startArrow=classic;startFill=1;endFill=0;" edge="1" parent="1" source="555" target="557">
                    <mxGeometry width="50" height="50" relative="1" as="geometry">
                        <mxPoint x="1483" y="-630" as="sourcePoint"/>
                        <mxPoint x="1550" y="-620" as="targetPoint"/>
                    </mxGeometry>
                </mxCell>
                <mxCell id="560" value="" style="endArrow=none;html=1;exitX=1;exitY=0.75;exitDx=0;exitDy=0;entryX=0;entryY=0.75;entryDx=0;entryDy=0;startArrow=classic;startFill=1;endFill=0;" edge="1" parent="1" source="555" target="565">
                    <mxGeometry width="50" height="50" relative="1" as="geometry">
                        <mxPoint x="1480" y="-620" as="sourcePoint"/>
                        <mxPoint x="1560" y="-560" as="targetPoint"/>
                    </mxGeometry>
                </mxCell>
                <mxCell id="561" value="" style="endArrow=classic;html=1;exitX=1;exitY=0.25;exitDx=0;exitDy=0;entryX=0;entryY=0.5;entryDx=0;entryDy=0;startArrow=classic;startFill=1;" edge="1" parent="1" source="556" target="558">
                    <mxGeometry width="50" height="50" relative="1" as="geometry">
                        <mxPoint x="1490" y="-490" as="sourcePoint"/>
                        <mxPoint x="1550" y="-490" as="targetPoint"/>
                    </mxGeometry>
                </mxCell>
                <mxCell id="562" value="" style="endArrow=classic;html=1;exitX=1;exitY=0.75;exitDx=0;exitDy=0;entryX=0;entryY=0.75;entryDx=0;entryDy=0;startArrow=classic;startFill=1;" edge="1" parent="1" source="556" target="566">
                    <mxGeometry width="50" height="50" relative="1" as="geometry">
                        <mxPoint x="1490" y="-430" as="sourcePoint"/>
                        <mxPoint x="1560" y="-430.21" as="targetPoint"/>
                    </mxGeometry>
                </mxCell>
                <mxCell id="565" value="" style="rounded=0;whiteSpace=wrap;html=1;fillColor=#ffe6cc;strokeColor=#d79b00;" vertex="1" parent="1">
                    <mxGeometry x="1640" y="-650" width="40" height="120" as="geometry"/>
                </mxCell>
                <mxCell id="566" value="" style="rounded=0;whiteSpace=wrap;html=1;fillColor=#ffe6cc;strokeColor=#d79b00;" vertex="1" parent="1">
                    <mxGeometry x="1640" y="-520" width="40" height="120" as="geometry"/>
                </mxCell>
                <mxCell id="567" value="" style="endArrow=none;html=1;exitX=1;exitY=0.25;exitDx=0;exitDy=0;entryX=0;entryY=0.5;entryDx=0;entryDy=0;endFill=0;startArrow=classic;startFill=1;" edge="1" parent="1" source="565" target="577">
                    <mxGeometry width="50" height="50" relative="1" as="geometry">
                        <mxPoint x="1763" y="-630" as="sourcePoint"/>
                        <mxPoint x="1720" y="-620" as="targetPoint"/>
                        <Array as="points">
                            <mxPoint x="1700" y="-620"/>
                            <mxPoint x="1700" y="-670"/>
                        </Array>
                    </mxGeometry>
                </mxCell>
                <mxCell id="568" value="" style="endArrow=classic;html=1;exitX=1;exitY=0.25;exitDx=0;exitDy=0;entryX=0;entryY=0.75;entryDx=0;entryDy=0;startArrow=classic;startFill=1;" edge="1" parent="1" source="566" target="574">
                    <mxGeometry width="50" height="50" relative="1" as="geometry">
                        <mxPoint x="1770" y="-490" as="sourcePoint"/>
                        <mxPoint x="1710" y="-490" as="targetPoint"/>
                        <Array as="points">
                            <mxPoint x="1700" y="-490"/>
                            <mxPoint x="1700" y="-505"/>
                        </Array>
                    </mxGeometry>
                </mxCell>
                <mxCell id="569" value="" style="endArrow=classic;html=1;exitX=1;exitY=0.75;exitDx=0;exitDy=0;entryX=0;entryY=0.5;entryDx=0;entryDy=0;startArrow=classic;startFill=1;" edge="1" parent="1" source="566" target="576">
                    <mxGeometry width="50" height="50" relative="1" as="geometry">
                        <mxPoint x="1770" y="-430" as="sourcePoint"/>
                        <mxPoint x="1710" y="-430" as="targetPoint"/>
                    </mxGeometry>
                </mxCell>
                <mxCell id="570" value="Wishbone Interface" style="rounded=0;whiteSpace=wrap;html=1;fillColor=#ffe6cc;strokeColor=#d79b00;" vertex="1" parent="1">
                    <mxGeometry x="1730" y="-610" width="70" height="40" as="geometry"/>
                </mxCell>
                <mxCell id="572" value="" style="endArrow=none;html=1;exitX=1;exitY=0.5;exitDx=0;exitDy=0;entryX=0;entryY=0.5;entryDx=0;entryDy=0;startArrow=classic;startFill=1;endFill=0;" edge="1" parent="1" source="565" target="570">
                    <mxGeometry width="50" height="50" relative="1" as="geometry">
                        <mxPoint x="1690" y="-590" as="sourcePoint"/>
                        <mxPoint x="1700" y="-590" as="targetPoint"/>
                        <Array as="points">
                            <mxPoint x="1700" y="-590"/>
                            <mxPoint x="1710" y="-590"/>
                        </Array>
                    </mxGeometry>
                </mxCell>
                <mxCell id="573" value="" style="endArrow=none;html=1;exitX=1;exitY=0.75;exitDx=0;exitDy=0;entryX=0;entryY=0.25;entryDx=0;entryDy=0;endFill=0;startArrow=classic;startFill=1;" edge="1" parent="1" source="565" target="574">
                    <mxGeometry width="50" height="50" relative="1" as="geometry">
                        <mxPoint x="1684" y="-560" as="sourcePoint"/>
                        <mxPoint x="1694" y="-560" as="targetPoint"/>
                        <Array as="points">
                            <mxPoint x="1700" y="-560"/>
                            <mxPoint x="1700" y="-535"/>
                        </Array>
                    </mxGeometry>
                </mxCell>
                <mxCell id="574" value="TDP&lt;br&gt;RAM" style="rounded=1;whiteSpace=wrap;html=1;fillColor=#dae8fc;strokeColor=#6c8ebf;" vertex="1" parent="1">
                    <mxGeometry x="1730" y="-550" width="70" height="60" as="geometry"/>
                </mxCell>
                <mxCell id="576" value="Wishbone Interface" style="rounded=0;whiteSpace=wrap;html=1;fillColor=#ffe6cc;strokeColor=#d79b00;" vertex="1" parent="1">
                    <mxGeometry x="1730" y="-450" width="70" height="40" as="geometry"/>
                </mxCell>
                <mxCell id="577" value="BOOT&lt;br&gt;ROM" style="rounded=1;whiteSpace=wrap;html=1;fillColor=#dae8fc;strokeColor=#6c8ebf;" vertex="1" parent="1">
                    <mxGeometry x="1730" y="-700" width="70" height="60" as="geometry"/>
                </mxCell>
                <mxCell id="578" value="" style="endArrow=none;html=1;exitX=1;exitY=0.5;exitDx=0;exitDy=0;entryX=0;entryY=0.25;entryDx=0;entryDy=0;endFill=0;startArrow=classic;startFill=1;" edge="1" parent="1" source="557" target="565">
                    <mxGeometry width="50" height="50" relative="1" as="geometry">
                        <mxPoint x="1489.9999999999995" y="-610.0000000000001" as="sourcePoint"/>
                        <mxPoint x="1529.9999999999995" y="-610.0000000000001" as="targetPoint"/>
                    </mxGeometry>
                </mxCell>
                <mxCell id="579" value="" style="endArrow=classic;html=1;exitX=1;exitY=0.5;exitDx=0;exitDy=0;entryX=0;entryY=0.25;entryDx=0;entryDy=0;startArrow=classic;startFill=1;" edge="1" parent="1" source="558" target="566">
                    <mxGeometry width="50" height="50" relative="1" as="geometry">
                        <mxPoint x="1609.9999999999995" y="-610.0000000000001" as="sourcePoint"/>
                        <mxPoint x="1649.9999999999995" y="-610.0000000000001" as="targetPoint"/>
                    </mxGeometry>
                </mxCell>
                <mxCell id="580" value="Memory Layout" style="text;html=1;align=center;verticalAlign=middle;resizable=0;points=[];autosize=1;strokeColor=none;fillColor=none;" vertex="1" parent="1">
                    <mxGeometry x="1506" y="-770" width="100" height="20" as="geometry"/>
                </mxCell>
                <mxCell id="581" value="" style="endArrow=classic;html=1;exitX=1;exitY=0.75;exitDx=0;exitDy=0;entryX=0;entryY=0.5;entryDx=0;entryDy=0;startArrow=classic;startFill=1;" edge="1" parent="1">
                    <mxGeometry width="50" height="50" relative="1" as="geometry">
                        <mxPoint x="1800" y="-430.42" as="sourcePoint"/>
                        <mxPoint x="1850" y="-430.42" as="targetPoint"/>
                    </mxGeometry>
                </mxCell>
                <mxCell id="582" value="" style="endArrow=classic;html=1;exitX=1;exitY=0.75;exitDx=0;exitDy=0;entryX=0;entryY=0.5;entryDx=0;entryDy=0;startArrow=classic;startFill=1;" edge="1" parent="1">
                    <mxGeometry width="50" height="50" relative="1" as="geometry">
                        <mxPoint x="1800" y="-590" as="sourcePoint"/>
                        <mxPoint x="1850" y="-590" as="targetPoint"/>
                    </mxGeometry>
                </mxCell>
            </root>
        </mxGraphModel>
    </diagram>
</mxfile>